<svg xmlns="http://www.w3.org/2000/svg" xmlns:xlink="http://www.w3.org/1999/xlink" x="0" y="0" width="717.98828125" height="335.986328125" style="
        width:717.98828125px;
        height:335.986328125px;
        background: transparent;
        fill: none;
">
        
        
        <svg xmlns="http://www.w3.org/2000/svg" class="role-diagram-draw-area"><g class="shapes-region" style="stroke: black; fill: none;"><g/></g><g><g class="connection-group"><g class="arrow-line"><path class="connection real" stroke-dasharray="" d="  M121.63,75.01 C104.55,73.49 76.23,93.36 36.68,134.61" style="stroke: rgb(0, 0, 0); stroke-width: 1; fill: none; fill-opacity: 1;"/><g stroke="#000" transform="matrix(0.6903775164708157,-0.7234492966003827,0.7234492966003827,0.6903775164708157,35.47419230927308,135.8650858300263)" style="stroke: rgb(0, 0, 0); stroke-width: 1;"><path d=" M10.93,-3.29 Q4.96,-0.45 0,0 Q4.96,0.45 10.93,3.29"/></g></g></g><g class="connection-group"><g class="arrow-line"><path class="connection real" stroke-dasharray="" d="  M383.53,114.55 C374.62,115.3 363,122.92 348.69,137.44" style="stroke: rgb(0, 0, 0); stroke-width: 1; fill: none; fill-opacity: 1;"/><g stroke="#000" transform="matrix(0.6959127965923142,-0.7181262977631889,0.7181262977631889,0.6959127965923142,347.35115331047473,138.80699865371403)" style="stroke: rgb(0, 0, 0); stroke-width: 1;"><path d=" M10.93,-3.29 Q4.96,-0.45 0,0 Q4.96,0.45 10.93,3.29"/></g></g></g><g class="connection-group"><g class="arrow-line"><path class="connection real" stroke-dasharray="" d="  M195.63,67.67 C218.46,63.74 278.15,73.75 374.71,97.7" style="stroke: rgb(0, 0, 0); stroke-width: 1; fill: none; fill-opacity: 1;"/><g stroke="#000" transform="matrix(-0.9704643831515375,-0.24124444249413482,0.24124444249413482,-0.9704643831515375,376.16774841498835,98.066503827112)" style="stroke: rgb(0, 0, 0); stroke-width: 1;"><path d=" M10.93,-3.29 Q4.96,-0.45 0,0 Q4.96,0.45 10.93,3.29"/></g></g></g><g class="connection-group"><g class="arrow-line"><path class="connection real" stroke-dasharray="" d="  M407.87,116.21 L408.56,136" style="stroke: rgb(0, 0, 0); stroke-width: 1; fill: none; fill-opacity: 1;"/><g stroke="#000" transform="matrix(-0.03489949670250165,-0.9993908270190957,0.9993908270190957,-0.03489949670250165,408.6300151673137,138.00000219504466)" style="stroke: rgb(0, 0, 0); stroke-width: 1;"><path d=" M10.93,-3.29 Q4.96,-0.45 0,0 Q4.96,0.45 10.93,3.29"/></g></g></g><g class="connection-group"><g class="arrow-line"><path class="connection real" stroke-dasharray="" d="  M416.72,159.05 L428.96,175.61" style="stroke: rgb(0, 0, 0); stroke-width: 1; fill: none; fill-opacity: 1;"/><g stroke="#000" transform="matrix(-0.5942614438849271,-0.8042719293322388,0.8042719293322388,-0.5942614438849271,430.14371687862536,177.22105757918467)" style="stroke: rgb(0, 0, 0); stroke-width: 1;"><path d=" M10.93,-3.29 Q4.96,-0.45 0,0 Q4.96,0.45 10.93,3.29"/></g></g></g><g class="connection-group"><g class="arrow-line"><path class="connection real" stroke-dasharray="" d="  M127.58,110.67 C116.64,110.04 104.17,118.23 90.17,135.26" style="stroke: rgb(0, 0, 0); stroke-width: 1; fill: none; fill-opacity: 1;"/><g stroke="#000" transform="matrix(0.6271477391596754,-0.7789003230625262,0.7789003230625262,0.6271477391596754,89.09476245226601,136.5903812545539)" style="stroke: rgb(0, 0, 0); stroke-width: 1;"><path d=" M10.93,-3.29 Q4.96,-0.45 0,0 Q4.96,0.45 10.93,3.29"/></g></g></g><g class="connection-group"><g class="arrow-line"><path class="connection real" stroke-dasharray="" d="  M155.66,113.21 L154,134.01" style="stroke: rgb(0, 0, 0); stroke-width: 1; fill: none; fill-opacity: 1;"/><g stroke="#000" transform="matrix(0.07932904023460965,-0.9968484856664305,0.9968484856664305,0.07932904023460965,153.8435538934221,136.0015565480775)" style="stroke: rgb(0, 0, 0); stroke-width: 1;"><path d=" M10.93,-3.29 Q4.96,-0.45 0,0 Q4.96,0.45 10.93,3.29"/></g></g></g><g class="connection-group"><g class="arrow-line"><path class="connection real" stroke-dasharray="" d="  M153.53,157.21 L154.37,174" style="stroke: rgb(0, 0, 0); stroke-width: 1; fill: none; fill-opacity: 1;"/><g stroke="#000" transform="matrix(-0.04989569016070867,-0.9987544343347801,0.9987544343347801,-0.04989569016070867,154.46971333766277,176.000500818639)" style="stroke: rgb(0, 0, 0); stroke-width: 1;"><path d=" M10.93,-3.29 Q4.96,-0.45 0,0 Q4.96,0.45 10.93,3.29"/></g></g></g><g class="connection-group"><g class="arrow-line"><path class="connection real" stroke-dasharray="" d="  M145.56,196.93 L124.72,219.72" style="stroke: rgb(0, 0, 0); stroke-width: 1; fill: none; fill-opacity: 1;"/><g stroke="#000" transform="matrix(0.6748177623013636,-0.7379844088343468,0.7379844088343468,0.6748177623013636,123.37112011412466,221.19791245127294)" style="stroke: rgb(0, 0, 0); stroke-width: 1;"><path d=" M10.93,-3.29 Q4.96,-0.45 0,0 Q4.96,0.45 10.93,3.29"/></g></g></g><g class="connection-group"><g class="arrow-line"><path class="connection real" stroke-dasharray="" d="  M154.88,197.21 L154.64,218.6" style="stroke: rgb(0, 0, 0); stroke-width: 1; fill: none; fill-opacity: 1;"/><g stroke="#000" transform="matrix(0.011344396795371418,-0.9999356502602301,0.9999356502602301,0.011344396795371418,154.6163021403928,220.59709916673955)" style="stroke: rgb(0, 0, 0); stroke-width: 1;"><path d=" M10.93,-3.29 Q4.96,-0.45 0,0 Q4.96,0.45 10.93,3.29"/></g></g></g><g class="connection-group"><g class="arrow-line"><path class="connection real" stroke-dasharray="" d="  M164.77,196.91 L186.27,219.58" style="stroke: rgb(0, 0, 0); stroke-width: 1; fill: none; fill-opacity: 1;"/><g stroke="#000" transform="matrix(-0.6881013303402626,-0.7256146078904151,0.7256146078904151,-0.6881013303402626,187.64374842226212,221.03278998944802)" style="stroke: rgb(0, 0, 0); stroke-width: 1;"><path d=" M10.93,-3.29 Q4.96,-0.45 0,0 Q4.96,0.45 10.93,3.29"/></g></g></g><g class="connection-group"><g class="arrow-line"><path class="connection real" stroke-dasharray="" d="  M153.71,78.21 L155.06,90.02" style="stroke: rgb(0, 0, 0); stroke-width: 1; fill: none; fill-opacity: 1;"/><g stroke="#000" transform="matrix(-0.11355002886886374,-0.9935322797694498,0.9935322797694498,-0.11355002886886374,155.28825671419648,92.00348031460425)" style="stroke: rgb(0, 0, 0); stroke-width: 1;"><path d=" M10.93,-3.29 Q4.96,-0.45 0,0 Q4.96,0.45 10.93,3.29"/></g></g></g><g class="connection-group"><g class="arrow-line"><path class="connection real" stroke-dasharray="" d="  M184.69,110.82 C202.74,114.2 219.71,122.33 235.58,135.24" style="stroke: rgb(0, 0, 0); stroke-width: 1; fill: none; fill-opacity: 1;"/><g stroke="#000" transform="matrix(-0.767389013233511,-0.641181801339135,0.641181801339135,-0.767389013233511,237.05199570574575,136.45276260215445)" style="stroke: rgb(0, 0, 0); stroke-width: 1;"><path d=" M10.93,-3.29 Q4.96,-0.45 0,0 Q4.96,0.45 10.93,3.29"/></g></g></g><g class="connection-group"><g class="arrow-line"><path class="connection real" stroke-dasharray="" d="  M246.47,157.17 L237.25,178.66" style="stroke: rgb(0, 0, 0); stroke-width: 1; fill: none; fill-opacity: 1;"/><g stroke="#000" transform="matrix(0.39426272434295134,-0.9189977715934212,0.9189977715934212,0.39426272434295134,236.46133207748798,180.4995345342686)" style="stroke: rgb(0, 0, 0); stroke-width: 1;"><path d=" M10.93,-3.29 Q4.96,-0.45 0,0 Q4.96,0.45 10.93,3.29"/></g></g></g><g class="connection-group"><g class="arrow-line"><path class="connection real" stroke-dasharray="" d="  M258.45,157.09 L274.21,179.24" style="stroke: rgb(0, 0, 0); stroke-width: 1; fill: none; fill-opacity: 1;"/><g stroke="#000" transform="matrix(-0.5795656703222741,-0.8149255387971917,0.8149255387971917,-0.5795656703222741,275.36553582049515,180.86788280716922)" style="stroke: rgb(0, 0, 0); stroke-width: 1;"><path d=" M10.93,-3.29 Q4.96,-0.45 0,0 Q4.96,0.45 10.93,3.29"/></g></g></g><g class="connection-group"><g class="arrow-line"><path class="connection real" stroke-dasharray="6 6" d="  M153.52,34.87 L152.89,55" style="stroke: rgb(0, 0, 0); stroke-width: 1; fill: none; fill-opacity: 1;"/><g stroke="#000" transform="matrix(0.031236311796863727,-0.9995120273540129,0.9995120273540129,0.031236311796863727,152.8307148232698,56.99993760064493)" style="stroke: rgb(0, 0, 0); stroke-width: 1;"><path d=" M10.93,-3.29 Q4.96,-0.45 0,0 Q4.96,0.45 10.93,3.29"/></g></g></g><g class="connection-group"><g class="arrow-line"><path class="connection real" stroke-dasharray="" d="  M438.18,276.9 L427.94,291.32" style="stroke: rgb(0, 0, 0); stroke-width: 1; fill: none; fill-opacity: 1;"/><g stroke="#000" transform="matrix(0.5791388968818441,-0.8152288869504568,0.8152288869504568,0.5791388968818441,426.7831044337317,292.95211126061093)" style="stroke: rgb(0, 0, 0); stroke-width: 1;"><path d=" M10.93,-3.29 Q4.96,-0.45 0,0 Q4.96,0.45 10.93,3.29"/></g></g></g><g class="connection-group"><g class="arrow-line"><path class="connection real" stroke-dasharray="" d="  M450.46,277.07 L457.23,291.34" style="stroke: rgb(0, 0, 0); stroke-width: 1; fill: none; fill-opacity: 1;"/><g stroke="#000" transform="matrix(-0.4286197837751285,-0.9034849644330347,0.9034849644330347,-0.4286197837751285,458.0878004894387,293.1440263447548)" style="stroke: rgb(0, 0, 0); stroke-width: 1;"><path d=" M10.93,-3.29 Q4.96,-0.45 0,0 Q4.96,0.45 10.93,3.29"/></g></g></g><g class="connection-group"><g class="arrow-line"><path class="connection real" stroke-dasharray="" d="  M362.19,197.04 C283.01,229.73 256.66,260.77 283.15,290.17" style="stroke: rgb(0, 0, 0); stroke-width: 1; fill: none; fill-opacity: 1;"/><g stroke="#000" transform="matrix(-0.6916391215446402,-0.7222432592616966,0.7222432592616966,-0.6916391215446402,284.39544680890106,291.5072675294352)" style="stroke: rgb(0, 0, 0); stroke-width: 1;"><path d=" M10.93,-3.29 Q4.96,-0.45 0,0 Q4.96,0.45 10.93,3.29"/></g></g></g><g class="connection-group"><g class="arrow-line"><path class="connection real" stroke-dasharray="" d="  M386.23,243.11 L387.21,288.27" style="stroke: rgb(0, 0, 0); stroke-width: 1; fill: none; fill-opacity: 1;"/><g stroke="#000" transform="matrix(-0.02164039331209835,-0.9997658192683413,0.9997658192683413,-0.02164039331209835,387.25400552708425,290.27306631597355)" style="stroke: rgb(0, 0, 0); stroke-width: 1;"><path d=" M10.93,-3.29 Q4.96,-0.45 0,0 Q4.96,0.45 10.93,3.29"/></g></g></g><g class="connection-group"><g class="arrow-line"><path class="connection real" stroke-dasharray="" d="  M403.4,242.47 L427.96,256.55" style="stroke: rgb(0, 0, 0); stroke-width: 1; fill: none; fill-opacity: 1;"/><g stroke="#000" transform="matrix(-0.8675919238668252,-0.497276838029946,0.497276838029946,-0.8675919238668252,429.690919549062,257.544247540709)" style="stroke: rgb(0, 0, 0); stroke-width: 1;"><path d=" M10.93,-3.29 Q4.96,-0.45 0,0 Q4.96,0.45 10.93,3.29"/></g></g></g><g class="connection-group"><g class="arrow-line"><path class="connection real" stroke-dasharray="" d="  M379.43,243.02 L350.91,288.65" style="stroke: rgb(0, 0, 0); stroke-width: 1; fill: none; fill-opacity: 1;"/><g stroke="#000" transform="matrix(0.5300672684762533,-0.8479555948810784,0.8479555948810784,0.5300672684762533,349.8469859766797,290.34482243731236)" style="stroke: rgb(0, 0, 0); stroke-width: 1;"><path d=" M10.93,-3.29 Q4.96,-0.45 0,0 Q4.96,0.45 10.93,3.29"/></g></g></g><g class="connection-group"><g class="arrow-line"><path class="connection real" stroke-dasharray="" d="  M382.59,199.21 L384.71,219.91" style="stroke: rgb(0, 0, 0); stroke-width: 1; fill: none; fill-opacity: 1;"/><g stroke="#000" transform="matrix(-0.10192445579505097,-0.9947921417617264,0.9947921417617264,-0.10192445579505097,384.9128515048231,221.89576853700908)" style="stroke: rgb(0, 0, 0); stroke-width: 1;"><path d=" M10.93,-3.29 Q4.96,-0.45 0,0 Q4.96,0.45 10.93,3.29"/></g></g></g><g class="connection-group"><g class="arrow-line"><path class="connection real" stroke-dasharray="" d="  M401.81,159.07 L389.74,176.62" style="stroke: rgb(0, 0, 0); stroke-width: 1; fill: none; fill-opacity: 1;"/><g stroke="#000" transform="matrix(0.5665500654516756,-0.8240273195329765,0.8240273195329765,0.5665500654516756,388.60934855136503,178.2653634452173)" style="stroke: rgb(0, 0, 0); stroke-width: 1;"><path d=" M10.93,-3.29 Q4.96,-0.45 0,0 Q4.96,0.45 10.93,3.29"/></g></g></g></g><g><g><ellipse cx="152.5" cy="67.60623406538457" rx="43.1335136523794" ry="10.606601717798211" style="stroke: rgb(0, 0, 0); stroke-width: 1; fill: none; fill-opacity: 1;"/></g><g><ellipse cx="26" cy="145.5" rx="22.62741699796952" ry="10.606601717798211" style="stroke: rgb(0, 0, 0); stroke-width: 1; fill: none; fill-opacity: 1;"/></g><g><ellipse cx="407.5" cy="105.60623406538457" rx="44.54772721475249" ry="10.606601717798211" style="stroke: rgb(0, 0, 0); stroke-width: 1; fill: none; fill-opacity: 1;"/></g><g><ellipse cx="337" cy="148.5" rx="25.45584412271571" ry="10.606601717798211" style="stroke: rgb(0, 0, 0); stroke-width: 1; fill: none; fill-opacity: 1;"/></g><g><ellipse cx="409" cy="148.60623406538457" rx="43.840620433565945" ry="10.606601717798211" style="stroke: rgb(0, 0, 0); stroke-width: 1; fill: none; fill-opacity: 1;"/></g><g><ellipse cx="437" cy="186.5" rx="14.14213562373095" ry="10.606601717798211" style="stroke: rgb(0, 0, 0); stroke-width: 1; fill: none; fill-opacity: 1;"/></g><g><ellipse cx="156.5" cy="102.60623406538457" rx="44.54772721475249" ry="10.606601717798211" style="stroke: rgb(0, 0, 0); stroke-width: 1; fill: none; fill-opacity: 1;"/></g><g><ellipse cx="80" cy="146.5" rx="25.45584412271571" ry="10.606601717798211" style="stroke: rgb(0, 0, 0); stroke-width: 1; fill: none; fill-opacity: 1;"/></g><g><ellipse cx="153" cy="146.60623406538457" rx="43.840620433565945" ry="10.606601717798211" style="stroke: rgb(0, 0, 0); stroke-width: 1; fill: none; fill-opacity: 1;"/></g><g><ellipse cx="155" cy="186.60623406538457" rx="41.012193308819754" ry="10.606601717798211" style="stroke: rgb(0, 0, 0); stroke-width: 1; fill: none; fill-opacity: 1;"/></g><g><ellipse cx="114.5" cy="230.9000244140625" rx="21.920310216782973" ry="10.606601717798211" style="stroke: rgb(0, 0, 0); stroke-width: 1; fill: none; fill-opacity: 1;"/></g><g><ellipse cx="197" cy="230.9000244140625" rx="25.45584412271571" ry="10.606601717798211" style="stroke: rgb(0, 0, 0); stroke-width: 1; fill: none; fill-opacity: 1;"/></g><g><circle cx="154.5" cy="230.9000244140625" r="10.30356810614307" style="stroke: rgb(0, 0, 0); stroke-width: 1; fill: none; fill-opacity: 1;"/></g><g><ellipse cx="251" cy="146.60623406538457" rx="48.08326112068523" ry="10.606601717798211" style="stroke: rgb(0, 0, 0); stroke-width: 1; fill: none; fill-opacity: 1;"/></g><g><ellipse cx="232" cy="190.9000244140625" rx="22.62741699796952" ry="10.606601717798211" style="stroke: rgb(0, 0, 0); stroke-width: 1; fill: none; fill-opacity: 1;"/></g><g><ellipse cx="282.5" cy="190.9000244140625" rx="21.920310216782973" ry="10.606601717798211" style="stroke: rgb(0, 0, 0); stroke-width: 1; fill: none; fill-opacity: 1;"/></g><g><circle cx="154" cy="19.5" r="15.379418403139947" style="stroke: rgb(0, 0, 0); stroke-width: 1; fill: none; fill-opacity: 1;"/><circle cx="154" cy="19.5" r="12.379418403139947" style="stroke: rgb(0, 0, 0); stroke-width: 1; fill: none; fill-opacity: 1;"/></g><g><ellipse cx="292" cy="301.5" rx="22.62741699796952" ry="10.606601717798211" style="stroke: rgb(0, 0, 0); stroke-width: 1; fill: none; fill-opacity: 1;"/></g><g><ellipse cx="343.5" cy="300.5" rx="21.920310216782973" ry="10.606601717798211" style="stroke: rgb(0, 0, 0); stroke-width: 1; fill: none; fill-opacity: 1;"/></g><g><ellipse cx="420" cy="302.5" rx="15.556349186104045" ry="10.606601717798211" style="stroke: rgb(0, 0, 0); stroke-width: 1; fill: none; fill-opacity: 1;"/></g><g><ellipse cx="463" cy="303.5" rx="22.62741699796952" ry="10.606601717798211" style="stroke: rgb(0, 0, 0); stroke-width: 1; fill: none; fill-opacity: 1;"/></g><g><circle cx="387.5" cy="301.60623406538457" r="11.335784048754634" style="stroke: rgb(0, 0, 0); stroke-width: 1; fill: none; fill-opacity: 1;"/></g><g><ellipse cx="445.5" cy="266.60623406538457" rx="30.40559159102154" ry="10.606601717798211" style="stroke: rgb(0, 0, 0); stroke-width: 1; fill: none; fill-opacity: 1;"/></g><g><ellipse cx="381.5" cy="188.60623406538457" rx="31.819805153394636" ry="10.606601717798211" style="stroke: rgb(0, 0, 0); stroke-width: 1; fill: none; fill-opacity: 1;"/></g><g><ellipse cx="386" cy="232.5" rx="50.91168824543142" ry="10.606601717798211" style="stroke: rgb(0, 0, 0); stroke-width: 1; fill: none; fill-opacity: 1;"/></g></g><g/></svg>
        <svg xmlns="http://www.w3.org/2000/svg" xmlns:xlink="http://www.w3.org/1999/xlink" width="715.99609375" height="333.994140625" style="width:715.99609375px;height:333.994140625px;font-family:Asana-Math, Asana;background:transparent;"><g><g><g><g transform="matrix(1,0,0,1,123.984375,71.72265625)"><path transform="matrix(0.011,0,0,-0.011,0,0)" d="M35 223C35 95 129 -11 252 -11C321 -11 370 11 415 40L410 107C378 85 331 53 253 53C169 53 113 126 113 223C113 310 157 397 254 397C333 397 359 376 398 351L410 417C349 452 317 461 255 461C115 461 35 339 35 223ZM525 0L600 0L600 722L525 722ZM727 113C727 67 757 -11 841 -11C951 -11 1006 34 1007 35L1007 0L1083 0L1083 305C1078 389 1012 461 917 461C854 461 808 445 760 417L766 350C799 373 841 401 916 401C929 401 955 400 979 371C1004 341 1004 307 1005 279L1005 245C902 244 727 219 727 113ZM800 114C800 177 933 192 1005 193L1005 130C1005 65 936 51 893 51C839 51 800 78 800 114ZM1190 34C1265 -7 1326 -11 1360 -11C1494 -11 1523 72 1523 127C1523 192 1477 234 1436 252C1374 280 1267 267 1267 340C1267 365 1282 401 1351 401C1423 401 1455 383 1495 364L1506 430C1451 453 1416 461 1360 461C1224 461 1196 382 1196 329C1196 259 1256 220 1300 206C1331 196 1374 191 1396 184C1416 178 1452 158 1452 120C1452 93 1434 52 1359 52C1278 52 1230 86 1202 102ZM1573 34C1648 -7 1709 -11 1743 -11C1877 -11 1906 72 1906 127C1906 192 1860 234 1819 252C1757 280 1650 267 1650 340C1650 365 1665 401 1734 401C1806 401 1838 383 1878 364L1889 430C1834 453 1799 461 1743 461C1607 461 1579 382 1579 329C1579 259 1639 220 1683 206C1714 196 1757 191 1779 184C1799 178 1835 158 1835 120C1835 93 1817 52 1742 52C1661 52 1613 86 1585 102ZM2013 -228C2013 -246 2030 -248 2041 -248L2594 -248C2597 -248 2622 -249 2622 -229C2622 -207 2601 -208 2589 -208L2040 -208C2016 -208 2013 -222 2013 -228ZM2742 221C2742 102 2812 -11 2914 -11C2980 -11 3028 19 3062 52L3062 0L3141 0L3141 722L3065 722L3065 401C3030 429 2983 456 2920 456C2821 456 2742 353 2742 221ZM2820 222C2820 353 2907 394 2965 394L2967 394C2978 394 3010 393 3041 364C3059 347 3062 341 3062 325L3062 134C3062 103 3015 51 2955 51C2901 51 2820 90 2820 222ZM3258 226C3258 102 3345 -11 3476 -11C3539 -11 3591 11 3634 40L3628 106C3584 74 3539 51 3476 51C3400 51 3332 117 3328 220L3638 220L3638 249C3629 420 3531 461 3460 461C3354 461 3258 360 3258 226ZM3333 275C3344 324 3384 399 3460 399C3489 399 3564 386 3581 275ZM3703 223C3703 95 3797 -11 3920 -11C3989 -11 4038 11 4083 40L4078 107C4046 85 3999 53 3921 53C3837 53 3781 126 3781 223C3781 310 3825 397 3922 397C4001 397 4027 376 4066 351L4078 417C4017 452 3985 461 3923 461C3783 461 3703 339 3703 223ZM4193 0L4268 0L4268 722L4193 722ZM4447 0L4531 0L4531 84L4447 84ZM4447 361L4531 361L4531 445L4447 445Z" stroke="rgb(0,0,0)" stroke-opacity="1" stroke-width="8" fill="rgb(0,0,0)" fill-opacity="1"></path></g></g><g><g transform="matrix(1,0,0,1,174.892578125,71.72265625)"><path transform="matrix(0.011,0,0,-0.011,0,0)" d="M185 362L246 362L331 722L253 722ZM463 362L524 362L609 722L531 722Z" stroke="rgb(0,0,0)" stroke-opacity="1" stroke-width="8" fill="rgb(0,0,0)" fill-opacity="1"></path></g></g></g></g><g><g><g><g transform="matrix(1,0,0,1,11.982421875,149.61328125)"><path transform="matrix(0.011,0,0,-0.011,0,0)" d="M81 0L156 0L156 445L81 445ZM74 590L164 590L164 679L74 679ZM274 221C274 102 344 -11 446 -11C512 -11 560 19 594 52L594 0L673 0L673 722L597 722L597 401C562 429 515 456 452 456C353 456 274 353 274 221ZM352 222C352 353 439 394 497 394L499 394C510 394 542 393 573 364C591 347 594 341 594 325L594 134C594 103 547 51 487 51C433 51 352 90 352 222ZM852 0L936 0L936 84L852 84ZM852 361L936 361L936 445L852 445Z" stroke="rgb(0,0,0)" stroke-opacity="1" stroke-width="8" fill="rgb(0,0,0)" fill-opacity="1"></path></g></g><g><g transform="matrix(1,0,0,1,27.021484375,149.61328125)"><path transform="matrix(0.011,0,0,-0.011,0,0)" d="M185 362L246 362L331 722L253 722Z" stroke="rgb(0,0,0)" stroke-opacity="1" stroke-width="8" fill="rgb(0,0,0)" fill-opacity="1"></path></g></g><g><g transform="matrix(1,0,0,1,30.087890625,149.61328125)"><path transform="matrix(0.011,0,0,-0.011,0,0)" d="M27 0L102 0L178 204L468 204L545 0L637 0L377 694L288 694ZM199 260C278 476 315 587 323 624C329 587 356 512 447 260Z" stroke="rgb(0,0,0)" stroke-opacity="1" stroke-width="8" fill="rgb(0,0,0)" fill-opacity="1"></path></g></g><g><g transform="matrix(1,0,0,1,37.431640625,149.61328125)"><path transform="matrix(0.011,0,0,-0.011,0,0)" d="M185 362L246 362L331 722L253 722Z" stroke="rgb(0,0,0)" stroke-opacity="1" stroke-width="8" fill="rgb(0,0,0)" fill-opacity="1"></path></g></g></g></g><g><g><g><g transform="matrix(1,0,0,1,377.98828125,109.720703125)"><path transform="matrix(0.011,0,0,-0.011,0,0)" d="M80 0L158 0L158 240C158 314 183 394 260 394C358 394 358 319 358 281L358 0L436 0L436 240C436 314 461 394 538 394C636 394 635 281 635 281L635 0L714 0L714 288C714 346 711 455 577 455C486 455 441 394 426 374C412 412 382 455 299 455C211 455 167 398 153 380L153 450L80 450ZM828 226C828 102 915 -11 1046 -11C1109 -11 1161 11 1204 40L1198 106C1154 74 1109 51 1046 51C970 51 902 117 898 220L1208 220L1208 249C1199 420 1101 461 1030 461C924 461 828 360 828 226ZM903 275C914 324 954 399 1030 399C1059 399 1134 386 1151 275ZM1256 386L1340 386L1340 117C1340 7 1389 -11 1422 -11C1467 -11 1518 -1 1570 27L1554 86C1540 76 1509 53 1466 53C1414 53 1412 112 1412 140L1412 386L1553 386L1553 445L1412 445L1412 571L1342 571L1342 445L1256 445ZM1679 0L1757 0L1757 240C1757 314 1782 394 1859 394C1957 394 1957 319 1957 281L1957 0L2035 0L2035 288C2035 349 2031 455 1898 455C1829 455 1786 422 1754 384L1754 722L1679 722ZM2200 -228C2200 -246 2217 -248 2228 -248L2781 -248C2784 -248 2809 -249 2809 -229C2809 -207 2788 -208 2776 -208L2227 -208C2203 -208 2200 -222 2200 -228ZM2929 221C2929 102 2999 -11 3101 -11C3167 -11 3215 19 3249 52L3249 0L3328 0L3328 722L3252 722L3252 401C3217 429 3170 456 3107 456C3008 456 2929 353 2929 221ZM3007 222C3007 353 3094 394 3152 394L3154 394C3165 394 3197 393 3228 364C3246 347 3249 341 3249 325L3249 134C3249 103 3202 51 3142 51C3088 51 3007 90 3007 222ZM3445 226C3445 102 3532 -11 3663 -11C3726 -11 3778 11 3821 40L3815 106C3771 74 3726 51 3663 51C3587 51 3519 117 3515 220L3825 220L3825 249C3816 420 3718 461 3647 461C3541 461 3445 360 3445 226ZM3520 275C3531 324 3571 399 3647 399C3676 399 3751 386 3768 275ZM3890 223C3890 95 3984 -11 4107 -11C4176 -11 4225 11 4270 40L4265 107C4233 85 4186 53 4108 53C4024 53 3968 126 3968 223C3968 310 4012 397 4109 397C4188 397 4214 376 4253 351L4265 417C4204 452 4172 461 4110 461C3970 461 3890 339 3890 223ZM4380 0L4455 0L4455 722L4380 722ZM4634 0L4718 0L4718 84L4634 84ZM4634 361L4718 361L4718 445L4634 445Z" stroke="rgb(0,0,0)" stroke-opacity="1" stroke-width="8" fill="rgb(0,0,0)" fill-opacity="1"></path></g></g><g><g transform="matrix(1,0,0,1,430.947265625,109.720703125)"><path transform="matrix(0.011,0,0,-0.011,0,0)" d="M185 362L246 362L331 722L253 722ZM463 362L524 362L609 722L531 722Z" stroke="rgb(0,0,0)" stroke-opacity="1" stroke-width="8" fill="rgb(0,0,0)" fill-opacity="1"></path></g></g></g></g><g><g><g><g transform="matrix(1,0,0,1,320.986328125,152.62109375)"><path transform="matrix(0.011,0,0,-0.011,0,0)" d="M81 0L156 0L156 445L81 445ZM74 590L164 590L164 679L74 679ZM274 221C274 102 344 -11 446 -11C512 -11 560 19 594 52L594 0L673 0L673 722L597 722L597 401C562 429 515 456 452 456C353 456 274 353 274 221ZM352 222C352 353 439 394 497 394L499 394C510 394 542 393 573 364C591 347 594 341 594 325L594 134C594 103 547 51 487 51C433 51 352 90 352 222ZM852 0L936 0L936 84L852 84ZM852 361L936 361L936 445L852 445Z" stroke="rgb(0,0,0)" stroke-opacity="1" stroke-width="8" fill="rgb(0,0,0)" fill-opacity="1"></path></g></g><g><g transform="matrix(1,0,0,1,336.025390625,152.62109375)"><path transform="matrix(0.011,0,0,-0.011,0,0)" d="M185 362L246 362L331 722L253 722ZM343 85C343 47 361 -11 432 -11C514 -11 569 12 609 35L602 0L678 0L736 275C740 298 744 309 744 330C744 390 707 461 609 461C541 461 491 442 443 417L435 350C469 369 519 401 597 401C652 401 665 353 665 323C665 307 663 299 652 245C611 245 523 241 448 211C368 180 343 135 343 85ZM418 104C418 127 436 152 479 168C525 185 582 192 640 193C627 128 625 121 622 113C607 75 557 51 497 51C447 51 418 76 418 104ZM853 0L1183 0L1195 59L1071 59L1202 678L1182 678C1159 659 1101 612 978 612L965 554C1027 554 1063 563 1101 577L991 59L866 59ZM1443 362L1504 362L1589 722L1511 722Z" stroke="rgb(0,0,0)" stroke-opacity="1" stroke-width="8" fill="rgb(0,0,0)" fill-opacity="1"></path></g></g></g></g><g><g><g><g transform="matrix(1,0,0,1,379.98046875,152.71875)"><path transform="matrix(0.011,0,0,-0.011,0,0)" d="M81 0L159 0L159 46C193 15 234 -11 293 -11C392 -11 480 86 480 224C480 344 415 455 316 455C285 455 220 448 156 397L156 722L81 722ZM159 133L159 320C159 357 214 394 266 394C320 394 401 356 401 223C401 92 315 50 258 50C229 50 199 62 176 90C163 109 159 107 159 133ZM575 221C575 85 680 -11 794 -11C908 -11 1014 84 1014 220C1014 345 922 461 794 461C676 461 575 357 575 221ZM653 231C653 352 730 399 794 399C858 399 935 353 935 231C935 106 861 53 794 53C728 53 653 105 653 231ZM1108 221C1108 102 1178 -11 1280 -11C1346 -11 1394 19 1428 52L1428 0L1507 0L1507 722L1431 722L1431 401C1396 429 1349 456 1286 456C1187 456 1108 353 1108 221ZM1186 222C1186 353 1273 394 1331 394L1333 394C1344 394 1376 393 1407 364C1425 347 1428 341 1428 325L1428 134C1428 103 1381 51 1321 51C1267 51 1186 90 1186 222ZM1604 445L1791 18C1795 10 1796 6 1796 1C1796 -3 1795 -8 1792 -15C1749 -119 1741 -149 1699 -149C1682 -149 1660 -143 1626 -132L1631 -197C1655 -203 1685 -205 1704 -205C1750 -205 1779 -182 1819 -90L2036 445L1961 445C1895 281 1830 118 1828 50C1819 107 1819 134 1683 445ZM2135 -228C2135 -246 2152 -248 2163 -248L2716 -248C2719 -248 2744 -249 2744 -229C2744 -207 2723 -208 2711 -208L2162 -208C2138 -208 2135 -222 2135 -228ZM2864 221C2864 102 2934 -11 3036 -11C3102 -11 3150 19 3184 52L3184 0L3263 0L3263 722L3187 722L3187 401C3152 429 3105 456 3042 456C2943 456 2864 353 2864 221ZM2942 222C2942 353 3029 394 3087 394L3089 394C3100 394 3132 393 3163 364C3181 347 3184 341 3184 325L3184 134C3184 103 3137 51 3077 51C3023 51 2942 90 2942 222ZM3380 226C3380 102 3467 -11 3598 -11C3661 -11 3713 11 3756 40L3750 106C3706 74 3661 51 3598 51C3522 51 3454 117 3450 220L3760 220L3760 249C3751 420 3653 461 3582 461C3476 461 3380 360 3380 226ZM3455 275C3466 324 3506 399 3582 399C3611 399 3686 386 3703 275ZM3825 223C3825 95 3919 -11 4042 -11C4111 -11 4160 11 4205 40L4200 107C4168 85 4121 53 4043 53C3959 53 3903 126 3903 223C3903 310 3947 397 4044 397C4123 397 4149 376 4188 351L4200 417C4139 452 4107 461 4045 461C3905 461 3825 339 3825 223ZM4315 0L4390 0L4390 722L4315 722ZM4569 0L4653 0L4653 84L4569 84ZM4569 361L4653 361L4653 445L4569 445Z" stroke="rgb(0,0,0)" stroke-opacity="1" stroke-width="8" fill="rgb(0,0,0)" fill-opacity="1"></path></g></g><g><g transform="matrix(1,0,0,1,432.2265625,152.71875)"><path transform="matrix(0.011,0,0,-0.011,0,0)" d="M185 362L246 362L331 722L253 722ZM463 362L524 362L609 722L531 722Z" stroke="rgb(0,0,0)" stroke-opacity="1" stroke-width="8" fill="rgb(0,0,0)" fill-opacity="1"></path></g></g></g></g><g><g><g><g transform="matrix(1,0,0,1,428.984375,190.619140625)"><path transform="matrix(0.011,0,0,-0.011,0,0)" d="M96 0L180 0L180 84L96 84ZM707 0L791 0L791 84L707 84ZM1318 0L1402 0L1402 84L1318 84Z" stroke="rgb(0,0,0)" stroke-opacity="1" stroke-width="8" fill="rgb(0,0,0)" fill-opacity="1"></path></g></g></g></g><g><g><g><g transform="matrix(1,0,0,1,126.982421875,106.72265625)"><path transform="matrix(0.011,0,0,-0.011,0,0)" d="M80 0L158 0L158 240C158 314 183 394 260 394C358 394 358 319 358 281L358 0L436 0L436 240C436 314 461 394 538 394C636 394 635 281 635 281L635 0L714 0L714 288C714 346 711 455 577 455C486 455 441 394 426 374C412 412 382 455 299 455C211 455 167 398 153 380L153 450L80 450ZM828 226C828 102 915 -11 1046 -11C1109 -11 1161 11 1204 40L1198 106C1154 74 1109 51 1046 51C970 51 902 117 898 220L1208 220L1208 249C1199 420 1101 461 1030 461C924 461 828 360 828 226ZM903 275C914 324 954 399 1030 399C1059 399 1134 386 1151 275ZM1256 386L1340 386L1340 117C1340 7 1389 -11 1422 -11C1467 -11 1518 -1 1570 27L1554 86C1540 76 1509 53 1466 53C1414 53 1412 112 1412 140L1412 386L1553 386L1553 445L1412 445L1412 571L1342 571L1342 445L1256 445ZM1679 0L1757 0L1757 240C1757 314 1782 394 1859 394C1957 394 1957 319 1957 281L1957 0L2035 0L2035 288C2035 349 2031 455 1898 455C1829 455 1786 422 1754 384L1754 722L1679 722ZM2200 -228C2200 -246 2217 -248 2228 -248L2781 -248C2784 -248 2809 -249 2809 -229C2809 -207 2788 -208 2776 -208L2227 -208C2203 -208 2200 -222 2200 -228ZM2929 221C2929 102 2999 -11 3101 -11C3167 -11 3215 19 3249 52L3249 0L3328 0L3328 722L3252 722L3252 401C3217 429 3170 456 3107 456C3008 456 2929 353 2929 221ZM3007 222C3007 353 3094 394 3152 394L3154 394C3165 394 3197 393 3228 364C3246 347 3249 341 3249 325L3249 134C3249 103 3202 51 3142 51C3088 51 3007 90 3007 222ZM3445 226C3445 102 3532 -11 3663 -11C3726 -11 3778 11 3821 40L3815 106C3771 74 3726 51 3663 51C3587 51 3519 117 3515 220L3825 220L3825 249C3816 420 3718 461 3647 461C3541 461 3445 360 3445 226ZM3520 275C3531 324 3571 399 3647 399C3676 399 3751 386 3768 275ZM3890 223C3890 95 3984 -11 4107 -11C4176 -11 4225 11 4270 40L4265 107C4233 85 4186 53 4108 53C4024 53 3968 126 3968 223C3968 310 4012 397 4109 397C4188 397 4214 376 4253 351L4265 417C4204 452 4172 461 4110 461C3970 461 3890 339 3890 223ZM4380 0L4455 0L4455 722L4380 722ZM4634 0L4718 0L4718 84L4634 84ZM4634 361L4718 361L4718 445L4634 445Z" stroke="rgb(0,0,0)" stroke-opacity="1" stroke-width="8" fill="rgb(0,0,0)" fill-opacity="1"></path></g></g><g><g transform="matrix(1,0,0,1,179.94140625,106.72265625)"><path transform="matrix(0.011,0,0,-0.011,0,0)" d="M185 362L246 362L331 722L253 722ZM463 362L524 362L609 722L531 722Z" stroke="rgb(0,0,0)" stroke-opacity="1" stroke-width="8" fill="rgb(0,0,0)" fill-opacity="1"></path></g></g></g></g><g><g><g><g transform="matrix(1,0,0,1,63.984375,150.619140625)"><path transform="matrix(0.011,0,0,-0.011,0,0)" d="M81 0L156 0L156 445L81 445ZM74 590L164 590L164 679L74 679ZM274 221C274 102 344 -11 446 -11C512 -11 560 19 594 52L594 0L673 0L673 722L597 722L597 401C562 429 515 456 452 456C353 456 274 353 274 221ZM352 222C352 353 439 394 497 394L499 394C510 394 542 393 573 364C591 347 594 341 594 325L594 134C594 103 547 51 487 51C433 51 352 90 352 222ZM852 0L936 0L936 84L852 84ZM852 361L936 361L936 445L852 445Z" stroke="rgb(0,0,0)" stroke-opacity="1" stroke-width="8" fill="rgb(0,0,0)" fill-opacity="1"></path></g></g><g><g transform="matrix(1,0,0,1,79.0234375,150.619140625)"><path transform="matrix(0.011,0,0,-0.011,0,0)" d="M185 362L246 362L331 722L253 722ZM343 85C343 47 361 -11 432 -11C514 -11 569 12 609 35L602 0L678 0L736 275C740 298 744 309 744 330C744 390 707 461 609 461C541 461 491 442 443 417L435 350C469 369 519 401 597 401C652 401 665 353 665 323C665 307 663 299 652 245C611 245 523 241 448 211C368 180 343 135 343 85ZM418 104C418 127 436 152 479 168C525 185 582 192 640 193C627 128 625 121 622 113C607 75 557 51 497 51C447 51 418 76 418 104ZM808 0L1208 0L1223 71L894 70C963 124 1031 179 1102 231C1217 315 1311 382 1311 512C1311 613 1245 678 1138 678C998 678 923 552 909 514L940 459C956 487 998 613 1111 613C1180 613 1227 569 1227 498C1227 366 1074 268 1002 212L836 76C817 61 822 64 808 0ZM1443 362L1504 362L1589 722L1511 722Z" stroke="rgb(0,0,0)" stroke-opacity="1" stroke-width="8" fill="rgb(0,0,0)" fill-opacity="1"></path></g></g></g></g><g><g><g><g transform="matrix(1,0,0,1,123.984375,150.7265625)"><path transform="matrix(0.011,0,0,-0.011,0,0)" d="M81 0L159 0L159 46C193 15 234 -11 293 -11C392 -11 480 86 480 224C480 344 415 455 316 455C285 455 220 448 156 397L156 722L81 722ZM159 133L159 320C159 357 214 394 266 394C320 394 401 356 401 223C401 92 315 50 258 50C229 50 199 62 176 90C163 109 159 107 159 133ZM575 221C575 85 680 -11 794 -11C908 -11 1014 84 1014 220C1014 345 922 461 794 461C676 461 575 357 575 221ZM653 231C653 352 730 399 794 399C858 399 935 353 935 231C935 106 861 53 794 53C728 53 653 105 653 231ZM1108 221C1108 102 1178 -11 1280 -11C1346 -11 1394 19 1428 52L1428 0L1507 0L1507 722L1431 722L1431 401C1396 429 1349 456 1286 456C1187 456 1108 353 1108 221ZM1186 222C1186 353 1273 394 1331 394L1333 394C1344 394 1376 393 1407 364C1425 347 1428 341 1428 325L1428 134C1428 103 1381 51 1321 51C1267 51 1186 90 1186 222ZM1604 445L1791 18C1795 10 1796 6 1796 1C1796 -3 1795 -8 1792 -15C1749 -119 1741 -149 1699 -149C1682 -149 1660 -143 1626 -132L1631 -197C1655 -203 1685 -205 1704 -205C1750 -205 1779 -182 1819 -90L2036 445L1961 445C1895 281 1830 118 1828 50C1819 107 1819 134 1683 445ZM2135 -228C2135 -246 2152 -248 2163 -248L2716 -248C2719 -248 2744 -249 2744 -229C2744 -207 2723 -208 2711 -208L2162 -208C2138 -208 2135 -222 2135 -228ZM2864 221C2864 102 2934 -11 3036 -11C3102 -11 3150 19 3184 52L3184 0L3263 0L3263 722L3187 722L3187 401C3152 429 3105 456 3042 456C2943 456 2864 353 2864 221ZM2942 222C2942 353 3029 394 3087 394L3089 394C3100 394 3132 393 3163 364C3181 347 3184 341 3184 325L3184 134C3184 103 3137 51 3077 51C3023 51 2942 90 2942 222ZM3380 226C3380 102 3467 -11 3598 -11C3661 -11 3713 11 3756 40L3750 106C3706 74 3661 51 3598 51C3522 51 3454 117 3450 220L3760 220L3760 249C3751 420 3653 461 3582 461C3476 461 3380 360 3380 226ZM3455 275C3466 324 3506 399 3582 399C3611 399 3686 386 3703 275ZM3825 223C3825 95 3919 -11 4042 -11C4111 -11 4160 11 4205 40L4200 107C4168 85 4121 53 4043 53C3959 53 3903 126 3903 223C3903 310 3947 397 4044 397C4123 397 4149 376 4188 351L4200 417C4139 452 4107 461 4045 461C3905 461 3825 339 3825 223ZM4315 0L4390 0L4390 722L4315 722ZM4569 0L4653 0L4653 84L4569 84ZM4569 361L4653 361L4653 445L4569 445Z" stroke="rgb(0,0,0)" stroke-opacity="1" stroke-width="8" fill="rgb(0,0,0)" fill-opacity="1"></path></g></g><g><g transform="matrix(1,0,0,1,176.23046875,150.7265625)"><path transform="matrix(0.011,0,0,-0.011,0,0)" d="M185 362L246 362L331 722L253 722ZM463 362L524 362L609 722L531 722Z" stroke="rgb(0,0,0)" stroke-opacity="1" stroke-width="8" fill="rgb(0,0,0)" fill-opacity="1"></path></g></g></g></g><g><g><g><g transform="matrix(1,0,0,1,127.98828125,190.7265625)"><path transform="matrix(0.011,0,0,-0.011,0,0)" d="M80 0L158 0L158 240C158 314 183 394 260 394C358 394 358 319 358 281L358 0L436 0L436 240C436 314 461 394 538 394C636 394 635 281 635 281L635 0L714 0L714 288C714 346 711 455 577 455C486 455 441 394 426 374C412 412 382 455 299 455C211 455 167 398 153 380L153 450L80 450ZM828 226C828 102 915 -11 1046 -11C1109 -11 1161 11 1204 40L1198 106C1154 74 1109 51 1046 51C970 51 902 117 898 220L1208 220L1208 249C1199 420 1101 461 1030 461C924 461 828 360 828 226ZM903 275C914 324 954 399 1030 399C1059 399 1134 386 1151 275ZM1256 386L1340 386L1340 117C1340 7 1389 -11 1422 -11C1467 -11 1518 -1 1570 27L1554 86C1540 76 1509 53 1466 53C1414 53 1412 112 1412 140L1412 386L1553 386L1553 445L1412 445L1412 571L1342 571L1342 445L1256 445ZM1679 0L1757 0L1757 240C1757 314 1782 394 1859 394C1957 394 1957 319 1957 281L1957 0L2035 0L2035 288C2035 349 2031 455 1898 455C1829 455 1786 422 1754 384L1754 722L1679 722ZM2200 -228C2200 -246 2217 -248 2228 -248L2781 -248C2784 -248 2809 -249 2809 -229C2809 -207 2788 -208 2776 -208L2227 -208C2203 -208 2200 -222 2200 -228ZM2975 0L3050 0L3050 445L2975 445ZM2968 590L3058 590L3058 679L2968 679ZM3213 0L3291 0L3291 240C3291 314 3316 394 3393 394C3491 394 3491 319 3491 281L3491 0L3569 0L3569 288C3569 358 3560 455 3432 455C3344 455 3300 398 3286 380L3286 450L3213 450ZM3664 445L3836 0L3924 0L4096 445L4022 445C3925 193 3888 90 3882 50C3877 81 3871 97 3834 201L3741 445ZM4207 0L4291 0L4291 84L4207 84ZM4207 361L4291 361L4291 445L4207 445Z" stroke="rgb(0,0,0)" stroke-opacity="1" stroke-width="8" fill="rgb(0,0,0)" fill-opacity="1"></path></g></g><g><g transform="matrix(1,0,0,1,176.259765625,190.7265625)"><path transform="matrix(0.011,0,0,-0.011,0,0)" d="M185 362L246 362L331 722L253 722ZM463 362L524 362L609 722L531 722Z" stroke="rgb(0,0,0)" stroke-opacity="1" stroke-width="8" fill="rgb(0,0,0)" fill-opacity="1"></path></g></g></g></g><g><g><g><g transform="matrix(1,0,0,1,100.986328125,235.013671875)"><path transform="matrix(0.011,0,0,-0.011,0,0)" d="M81 0L156 0L156 445L81 445ZM74 590L164 590L164 679L74 679ZM274 221C274 102 344 -11 446 -11C512 -11 560 19 594 52L594 0L673 0L673 722L597 722L597 401C562 429 515 456 452 456C353 456 274 353 274 221ZM352 222C352 353 439 394 497 394L499 394C510 394 542 393 573 364C591 347 594 341 594 325L594 134C594 103 547 51 487 51C433 51 352 90 352 222ZM852 0L936 0L936 84L852 84ZM852 361L936 361L936 445L852 445Z" stroke="rgb(0,0,0)" stroke-opacity="1" stroke-width="8" fill="rgb(0,0,0)" fill-opacity="1"></path></g></g><g><g transform="matrix(1,0,0,1,116.025390625,235.013671875)"><path transform="matrix(0.011,0,0,-0.011,0,0)" d="M185 362L246 362L331 722L253 722Z" stroke="rgb(0,0,0)" stroke-opacity="1" stroke-width="8" fill="rgb(0,0,0)" fill-opacity="1"></path></g></g><g><g transform="matrix(1,0,0,1,119.091796875,235.013671875)"><path transform="matrix(0.011,0,0,-0.011,0,0)" d="M81 0L159 0L159 46C193 15 234 -11 293 -11C392 -11 480 86 480 224C480 344 415 455 316 455C285 455 220 448 156 397L156 722L81 722ZM159 133L159 320C159 357 214 394 266 394C320 394 401 356 401 223C401 92 315 50 258 50C229 50 199 62 176 90C163 109 159 107 159 133Z" stroke="rgb(0,0,0)" stroke-opacity="1" stroke-width="8" fill="rgb(0,0,0)" fill-opacity="1"></path></g></g><g><g transform="matrix(1,0,0,1,124.78515625,235.013671875)"><path transform="matrix(0.011,0,0,-0.011,0,0)" d="M185 362L246 362L331 722L253 722Z" stroke="rgb(0,0,0)" stroke-opacity="1" stroke-width="8" fill="rgb(0,0,0)" fill-opacity="1"></path></g></g></g></g><g><g><g><g transform="matrix(1,0,0,1,180.986328125,235.013671875)"><path transform="matrix(0.011,0,0,-0.011,0,0)" d="M81 0L156 0L156 445L81 445ZM74 590L164 590L164 679L74 679ZM274 221C274 102 344 -11 446 -11C512 -11 560 19 594 52L594 0L673 0L673 722L597 722L597 401C562 429 515 456 452 456C353 456 274 353 274 221ZM352 222C352 353 439 394 497 394L499 394C510 394 542 393 573 364C591 347 594 341 594 325L594 134C594 103 547 51 487 51C433 51 352 90 352 222ZM852 0L936 0L936 84L852 84ZM852 361L936 361L936 445L852 445Z" stroke="rgb(0,0,0)" stroke-opacity="1" stroke-width="8" fill="rgb(0,0,0)" fill-opacity="1"></path></g></g><g><g transform="matrix(1,0,0,1,196.025390625,235.013671875)"><path transform="matrix(0.011,0,0,-0.011,0,0)" d="M185 362L246 362L331 722L253 722Z" stroke="rgb(0,0,0)" stroke-opacity="1" stroke-width="8" fill="rgb(0,0,0)" fill-opacity="1"></path></g></g><g><g transform="matrix(1,0,0,1,199.091796875,235.013671875)"><path transform="matrix(0.011,0,0,-0.011,0,0)" d="M81 0L159 0L159 46C193 15 234 -11 293 -11C392 -11 480 86 480 224C480 344 415 455 316 455C285 455 220 448 156 397L156 722L81 722ZM159 133L159 320C159 357 214 394 266 394C320 394 401 356 401 223C401 92 315 50 258 50C229 50 199 62 176 90C163 109 159 107 159 133ZM607 554C667 554 701 563 737 577L737 59L612 59L612 0L942 0L942 59L817 59L817 678L798 678C771 653 722 612 607 612Z" stroke="rgb(0,0,0)" stroke-opacity="1" stroke-width="8" fill="rgb(0,0,0)" fill-opacity="1"></path></g></g><g><g transform="matrix(1,0,0,1,210.283203125,235.013671875)"><path transform="matrix(0.011,0,0,-0.011,0,0)" d="M185 362L246 362L331 722L253 722Z" stroke="rgb(0,0,0)" stroke-opacity="1" stroke-width="8" fill="rgb(0,0,0)" fill-opacity="1"></path></g></g></g></g><g transform="matrix(1,0,0.04313635795262167,1,-9.968121467118038,0)"><g><g><g transform="matrix(1,0,0,1,151.9677734375,235.013671875)"><path transform="matrix(0.011,0,0,-0.011,0,0)" d="M96 0L180 0L180 84L96 84Z" stroke="rgb(0,0,0)" stroke-opacity="1" stroke-width="8" fill="rgb(0,0,0)" fill-opacity="1"></path></g></g></g></g><g><g><g><g transform="matrix(1,0,0,1,218.984375,150.7265625)"><path transform="matrix(0.011,0,0,-0.011,0,0)" d="M81 -195L159 -195L159 46C192 15 235 -11 294 -11C391 -11 480 83 480 224C480 343 417 455 322 455C288 455 220 448 156 396L156 445L81 445ZM159 126L159 334C165 341 199 391 265 391C347 391 401 310 401 222C401 116 326 50 256 50C197 50 159 102 159 126ZM561 113C561 67 591 -11 675 -11C785 -11 840 34 841 35L841 0L917 0L917 305C912 389 846 461 751 461C688 461 642 445 594 417L600 350C633 373 675 401 750 401C763 401 789 400 813 371C838 341 838 307 839 279L839 245C736 244 561 219 561 113ZM634 114C634 177 767 192 839 193L839 130C839 65 770 51 727 51C673 51 634 78 634 114ZM1050 0L1125 0L1125 206C1125 352 1236 386 1295 388L1295 455C1189 453 1136 385 1120 360L1120 450L1050 450ZM1355 113C1355 67 1385 -11 1469 -11C1579 -11 1634 34 1635 35L1635 0L1711 0L1711 305C1706 389 1640 461 1545 461C1482 461 1436 445 1388 417L1394 350C1427 373 1469 401 1544 401C1557 401 1583 400 1607 371C1632 341 1632 307 1633 279L1633 245C1530 244 1355 219 1355 113ZM1428 114C1428 177 1561 192 1633 193L1633 130C1633 65 1564 51 1521 51C1467 51 1428 78 1428 114ZM1871 0L1949 0L1949 240C1949 314 1974 394 2051 394C2149 394 2149 319 2149 281L2149 0L2227 0L2227 240C2227 314 2252 394 2329 394C2427 394 2426 281 2426 281L2426 0L2505 0L2505 288C2505 346 2502 455 2368 455C2277 455 2232 394 2217 374C2203 412 2173 455 2090 455C2002 455 1958 398 1944 380L1944 450L1871 450ZM2669 -228C2669 -246 2686 -248 2697 -248L3250 -248C3253 -248 3278 -249 3278 -229C3278 -207 3257 -208 3245 -208L2696 -208C2672 -208 2669 -222 2669 -228ZM3398 221C3398 102 3468 -11 3570 -11C3636 -11 3684 19 3718 52L3718 0L3797 0L3797 722L3721 722L3721 401C3686 429 3639 456 3576 456C3477 456 3398 353 3398 221ZM3476 222C3476 353 3563 394 3621 394L3623 394C3634 394 3666 393 3697 364C3715 347 3718 341 3718 325L3718 134C3718 103 3671 51 3611 51C3557 51 3476 90 3476 222ZM3914 226C3914 102 4001 -11 4132 -11C4195 -11 4247 11 4290 40L4284 106C4240 74 4195 51 4132 51C4056 51 3988 117 3984 220L4294 220L4294 249C4285 420 4187 461 4116 461C4010 461 3914 360 3914 226ZM3989 275C4000 324 4040 399 4116 399C4145 399 4220 386 4237 275ZM4359 223C4359 95 4453 -11 4576 -11C4645 -11 4694 11 4739 40L4734 107C4702 85 4655 53 4577 53C4493 53 4437 126 4437 223C4437 310 4481 397 4578 397C4657 397 4683 376 4722 351L4734 417C4673 452 4641 461 4579 461C4439 461 4359 339 4359 223ZM4849 0L4924 0L4924 722L4849 722ZM5103 0L5187 0L5187 84L5103 84ZM5103 361L5187 361L5187 445L5103 445Z" stroke="rgb(0,0,0)" stroke-opacity="1" stroke-width="8" fill="rgb(0,0,0)" fill-opacity="1"></path></g></g><g><g transform="matrix(1,0,0,1,277.099609375,150.7265625)"><path transform="matrix(0.011,0,0,-0.011,0,0)" d="M185 362L246 362L331 722L253 722ZM463 362L524 362L609 722L531 722Z" stroke="rgb(0,0,0)" stroke-opacity="1" stroke-width="8" fill="rgb(0,0,0)" fill-opacity="1"></path></g></g></g></g><g><g><g><g transform="matrix(1,0,0,1,217.98828125,195.013671875)"><path transform="matrix(0.011,0,0,-0.011,0,0)" d="M81 0L156 0L156 445L81 445ZM74 590L164 590L164 679L74 679ZM274 221C274 102 344 -11 446 -11C512 -11 560 19 594 52L594 0L673 0L673 722L597 722L597 401C562 429 515 456 452 456C353 456 274 353 274 221ZM352 222C352 353 439 394 497 394L499 394C510 394 542 393 573 364C591 347 594 341 594 325L594 134C594 103 547 51 487 51C433 51 352 90 352 222ZM852 0L936 0L936 84L852 84ZM852 361L936 361L936 445L852 445Z" stroke="rgb(0,0,0)" stroke-opacity="1" stroke-width="8" fill="rgb(0,0,0)" fill-opacity="1"></path></g></g><g><g transform="matrix(1,0,0,1,233.02734375,195.013671875)"><path transform="matrix(0.011,0,0,-0.011,0,0)" d="M185 362L246 362L331 722L253 722Z" stroke="rgb(0,0,0)" stroke-opacity="1" stroke-width="8" fill="rgb(0,0,0)" fill-opacity="1"></path></g></g><g><g transform="matrix(1,0,0,1,236.09375,195.013671875)"><path transform="matrix(0.011,0,0,-0.011,0,0)" d="M96 0L344 0C361 0 378 0 395 2C509 13 610 88 610 188C610 282 514 347 414 363C529 392 582 457 582 520C582 590 512 694 318 694L96 694ZM180 56L180 293L181 330L300 330C317 330 334 331 351 329C445 320 528 264 528 189C528 136 473 56 322 56ZM180 392L180 603L181 638L295 638C449 638 503 567 503 519C503 459 433 392 300 392Z" stroke="rgb(0,0,0)" stroke-opacity="1" stroke-width="8" fill="rgb(0,0,0)" fill-opacity="1"></path></g></g><g><g transform="matrix(1,0,0,1,243.4375,195.013671875)"><path transform="matrix(0.011,0,0,-0.011,0,0)" d="M185 362L246 362L331 722L253 722Z" stroke="rgb(0,0,0)" stroke-opacity="1" stroke-width="8" fill="rgb(0,0,0)" fill-opacity="1"></path></g></g></g></g><g><g><g><g transform="matrix(1,0,0,1,268.984375,195.013671875)"><path transform="matrix(0.011,0,0,-0.011,0,0)" d="M81 0L156 0L156 445L81 445ZM74 590L164 590L164 679L74 679ZM274 221C274 102 344 -11 446 -11C512 -11 560 19 594 52L594 0L673 0L673 722L597 722L597 401C562 429 515 456 452 456C353 456 274 353 274 221ZM352 222C352 353 439 394 497 394L499 394C510 394 542 393 573 364C591 347 594 341 594 325L594 134C594 103 547 51 487 51C433 51 352 90 352 222ZM852 0L936 0L936 84L852 84ZM852 361L936 361L936 445L852 445Z" stroke="rgb(0,0,0)" stroke-opacity="1" stroke-width="8" fill="rgb(0,0,0)" fill-opacity="1"></path></g></g><g><g transform="matrix(1,0,0,1,284.0234375,195.013671875)"><path transform="matrix(0.011,0,0,-0.011,0,0)" d="M185 362L246 362L331 722L253 722Z" stroke="rgb(0,0,0)" stroke-opacity="1" stroke-width="8" fill="rgb(0,0,0)" fill-opacity="1"></path></g></g><g><g transform="matrix(1,0,0,1,287.08984375,195.013671875)"><path transform="matrix(0.011,0,0,-0.011,0,0)" d="M81 0L159 0L159 46C193 15 234 -11 293 -11C392 -11 480 86 480 224C480 344 415 455 316 455C285 455 220 448 156 397L156 722L81 722ZM159 133L159 320C159 357 214 394 266 394C320 394 401 356 401 223C401 92 315 50 258 50C229 50 199 62 176 90C163 109 159 107 159 133Z" stroke="rgb(0,0,0)" stroke-opacity="1" stroke-width="8" fill="rgb(0,0,0)" fill-opacity="1"></path></g></g><g><g transform="matrix(1,0,0,1,292.783203125,195.013671875)"><path transform="matrix(0.011,0,0,-0.011,0,0)" d="M185 362L246 362L331 722L253 722Z" stroke="rgb(0,0,0)" stroke-opacity="1" stroke-width="8" fill="rgb(0,0,0)" fill-opacity="1"></path></g></g></g></g><g><g><g><g transform="matrix(1,0,0,1,147.98828125,23.6171875)"><path transform="matrix(0.011,0,0,-0.011,0,0)" d="M14 694L287 0L379 0L652 694L574 694L419 295C363 150 345 95 341 70C330 117 311 163 260 300L107 694ZM667 0L750 0L894 188L1044 0L1127 0L927 229L927 230L1111 445L1028 445L895 280L894 280L756 445L673 445L861 230L861 228Z" stroke="rgb(0,0,0)" stroke-opacity="1" stroke-width="8" fill="rgb(0,0,0)" fill-opacity="1"></path></g></g></g></g><g><g><g><g transform="matrix(1,0,0,1,277.98828125,305.619140625)"><path transform="matrix(0.011,0,0,-0.011,0,0)" d="M81 0L156 0L156 445L81 445ZM74 590L164 590L164 679L74 679ZM274 221C274 102 344 -11 446 -11C512 -11 560 19 594 52L594 0L673 0L673 722L597 722L597 401C562 429 515 456 452 456C353 456 274 353 274 221ZM352 222C352 353 439 394 497 394L499 394C510 394 542 393 573 364C591 347 594 341 594 325L594 134C594 103 547 51 487 51C433 51 352 90 352 222ZM852 0L936 0L936 84L852 84ZM852 361L936 361L936 445L852 445Z" stroke="rgb(0,0,0)" stroke-opacity="1" stroke-width="8" fill="rgb(0,0,0)" fill-opacity="1"></path></g></g><g><g transform="matrix(1,0,0,1,293.02734375,305.619140625)"><path transform="matrix(0.011,0,0,-0.011,0,0)" d="M185 362L246 362L331 722L253 722Z" stroke="rgb(0,0,0)" stroke-opacity="1" stroke-width="8" fill="rgb(0,0,0)" fill-opacity="1"></path></g></g><g><g transform="matrix(1,0,0,1,296.09375,305.619140625)"><path transform="matrix(0.011,0,0,-0.011,0,0)" d="M96 0L344 0C361 0 378 0 395 2C509 13 610 88 610 188C610 282 514 347 414 363C529 392 582 457 582 520C582 590 512 694 318 694L96 694ZM180 56L180 293L181 330L300 330C317 330 334 331 351 329C445 320 528 264 528 189C528 136 473 56 322 56ZM180 392L180 603L181 638L295 638C449 638 503 567 503 519C503 459 433 392 300 392Z" stroke="rgb(0,0,0)" stroke-opacity="1" stroke-width="8" fill="rgb(0,0,0)" fill-opacity="1"></path></g></g><g><g transform="matrix(1,0,0,1,303.4375,305.619140625)"><path transform="matrix(0.011,0,0,-0.011,0,0)" d="M185 362L246 362L331 722L253 722Z" stroke="rgb(0,0,0)" stroke-opacity="1" stroke-width="8" fill="rgb(0,0,0)" fill-opacity="1"></path></g></g></g></g><g><g><g><g transform="matrix(1,0,0,1,329.98046875,304.61328125)"><path transform="matrix(0.011,0,0,-0.011,0,0)" d="M81 0L156 0L156 445L81 445ZM74 590L164 590L164 679L74 679ZM274 221C274 102 344 -11 446 -11C512 -11 560 19 594 52L594 0L673 0L673 722L597 722L597 401C562 429 515 456 452 456C353 456 274 353 274 221ZM352 222C352 353 439 394 497 394L499 394C510 394 542 393 573 364C591 347 594 341 594 325L594 134C594 103 547 51 487 51C433 51 352 90 352 222ZM852 0L936 0L936 84L852 84ZM852 361L936 361L936 445L852 445Z" stroke="rgb(0,0,0)" stroke-opacity="1" stroke-width="8" fill="rgb(0,0,0)" fill-opacity="1"></path></g></g><g><g transform="matrix(1,0,0,1,345.01953125,304.61328125)"><path transform="matrix(0.011,0,0,-0.011,0,0)" d="M185 362L246 362L331 722L253 722Z" stroke="rgb(0,0,0)" stroke-opacity="1" stroke-width="8" fill="rgb(0,0,0)" fill-opacity="1"></path></g></g><g><g transform="matrix(1,0,0,1,348.0859375,304.61328125)"><path transform="matrix(0.011,0,0,-0.011,0,0)" d="M81 0L159 0L159 46C193 15 234 -11 293 -11C392 -11 480 86 480 224C480 344 415 455 316 455C285 455 220 448 156 397L156 722L81 722ZM159 133L159 320C159 357 214 394 266 394C320 394 401 356 401 223C401 92 315 50 258 50C229 50 199 62 176 90C163 109 159 107 159 133Z" stroke="rgb(0,0,0)" stroke-opacity="1" stroke-width="8" fill="rgb(0,0,0)" fill-opacity="1"></path></g></g><g><g transform="matrix(1,0,0,1,353.779296875,304.61328125)"><path transform="matrix(0.011,0,0,-0.011,0,0)" d="M185 362L246 362L331 722L253 722Z" stroke="rgb(0,0,0)" stroke-opacity="1" stroke-width="8" fill="rgb(0,0,0)" fill-opacity="1"></path></g></g></g></g><g><g><g><g transform="matrix(1,0,0,1,410.986328125,306.615234375)"><path transform="matrix(0.011,0,0,-0.011,0,0)" d="M80 0L158 0L158 240C158 314 183 394 260 394C358 394 358 319 358 281L358 0L436 0L436 288C436 358 427 455 299 455C211 455 167 398 153 380L153 450L80 450ZM551 226C551 102 638 -11 769 -11C832 -11 884 11 927 40L921 106C877 74 832 51 769 51C693 51 625 117 621 220L931 220L931 249C922 420 824 461 753 461C647 461 551 360 551 226ZM626 275C637 324 677 399 753 399C782 399 857 386 874 275ZM975 445L1113 0L1192 0C1231 129 1295 331 1298 394C1308 320 1316 293 1405 0L1492 0L1630 445L1557 445C1474 174 1450 89 1446 50C1442 81 1437 96 1408 201L1335 445L1264 445C1230 335 1161 113 1158 50C1153 88 1149 129 1050 445Z" stroke="rgb(0,0,0)" stroke-opacity="1" stroke-width="8" fill="rgb(0,0,0)" fill-opacity="1"></path></g></g></g></g><g><g><g><g transform="matrix(1,0,0,1,448.984375,307.62109375)"><path transform="matrix(0.011,0,0,-0.011,0,0)" d="M81 0L156 0L156 445L81 445ZM74 590L164 590L164 679L74 679ZM274 221C274 102 344 -11 446 -11C512 -11 560 19 594 52L594 0L673 0L673 722L597 722L597 401C562 429 515 456 452 456C353 456 274 353 274 221ZM352 222C352 353 439 394 497 394L499 394C510 394 542 393 573 364C591 347 594 341 594 325L594 134C594 103 547 51 487 51C433 51 352 90 352 222ZM852 0L936 0L936 84L852 84ZM852 361L936 361L936 445L852 445Z" stroke="rgb(0,0,0)" stroke-opacity="1" stroke-width="8" fill="rgb(0,0,0)" fill-opacity="1"></path></g></g><g><g transform="matrix(1,0,0,1,464.0234375,307.62109375)"><path transform="matrix(0.011,0,0,-0.011,0,0)" d="M185 362L246 362L331 722L253 722Z" stroke="rgb(0,0,0)" stroke-opacity="1" stroke-width="8" fill="rgb(0,0,0)" fill-opacity="1"></path></g></g><g><g transform="matrix(1,0,0,1,467.08984375,307.62109375)"><path transform="matrix(0.011,0,0,-0.011,0,0)" d="M96 0L344 0C361 0 378 0 395 2C509 13 610 88 610 188C610 282 514 347 414 363C529 392 582 457 582 520C582 590 512 694 318 694L96 694ZM180 56L180 293L181 330L300 330C317 330 334 331 351 329C445 320 528 264 528 189C528 136 473 56 322 56ZM180 392L180 603L181 638L295 638C449 638 503 567 503 519C503 459 433 392 300 392Z" stroke="rgb(0,0,0)" stroke-opacity="1" stroke-width="8" fill="rgb(0,0,0)" fill-opacity="1"></path></g></g><g><g transform="matrix(1,0,0,1,474.43359375,307.62109375)"><path transform="matrix(0.011,0,0,-0.011,0,0)" d="M185 362L246 362L331 722L253 722Z" stroke="rgb(0,0,0)" stroke-opacity="1" stroke-width="8" fill="rgb(0,0,0)" fill-opacity="1"></path></g></g></g></g><g><g><g><g transform="matrix(1,0,0,1,382.98828125,305.7265625)"><path transform="matrix(0.011,0,0,-0.011,0,0)" d="M56 150C56 138 62 119 95 119L680 119C715 119 721 138 721 150C721 160 717 180 683 180L102 180C99 180 95 181 92 181C60 181 56 159 56 150ZM56 350C56 343 59 320 93 320L684 320C717 320 721 342 721 350C721 360 716 381 681 381L96 381C62 381 56 363 56 350Z" stroke="rgb(0,0,0)" stroke-opacity="1" stroke-width="8" fill="rgb(0,0,0)" fill-opacity="1"></path></g></g></g></g><g><g><g><g transform="matrix(1,0,0,1,425.986328125,270.7265625)"><path transform="matrix(0.011,0,0,-0.011,0,0)" d="M35 223C35 95 129 -11 252 -11C321 -11 370 11 415 40L410 107C378 85 331 53 253 53C169 53 113 126 113 223C113 310 157 397 254 397C333 397 359 376 398 351L410 417C349 452 317 461 255 461C115 461 35 339 35 223ZM528 -228C528 -246 545 -248 556 -248L1109 -248C1112 -248 1137 -249 1137 -229C1137 -207 1116 -208 1104 -208L555 -208C531 -208 528 -222 528 -228ZM1303 0L1378 0L1378 445L1303 445ZM1296 590L1386 590L1386 679L1296 679ZM1541 0L1619 0L1619 240C1619 314 1644 394 1721 394C1819 394 1819 319 1819 281L1819 0L1897 0L1897 288C1897 358 1888 455 1760 455C1672 455 1628 398 1614 380L1614 450L1541 450ZM2005 34C2080 -7 2141 -11 2175 -11C2309 -11 2338 72 2338 127C2338 192 2292 234 2251 252C2189 280 2082 267 2082 340C2082 365 2097 401 2166 401C2238 401 2270 383 2310 364L2321 430C2266 453 2231 461 2175 461C2039 461 2011 382 2011 329C2011 259 2071 220 2115 206C2146 196 2189 191 2211 184C2231 178 2267 158 2267 120C2267 93 2249 52 2174 52C2093 52 2045 86 2017 102ZM2379 386L2463 386L2463 117C2463 7 2512 -11 2545 -11C2590 -11 2641 -1 2693 27L2677 86C2663 76 2632 53 2589 53C2537 53 2535 112 2535 140L2535 386L2676 386L2676 445L2535 445L2535 571L2465 571L2465 445L2379 445ZM2818 0L2902 0L2902 84L2818 84ZM2818 361L2902 361L2902 445L2818 445Z" stroke="rgb(0,0,0)" stroke-opacity="1" stroke-width="8" fill="rgb(0,0,0)" fill-opacity="1"></path></g></g><g><g transform="matrix(1,0,0,1,458.984375,270.7265625)"><path transform="matrix(0.011,0,0,-0.011,0,0)" d="M185 362L246 362L331 722L253 722ZM463 362L524 362L609 722L531 722Z" stroke="rgb(0,0,0)" stroke-opacity="1" stroke-width="8" fill="rgb(0,0,0)" fill-opacity="1"></path></g></g></g></g><g><g><g><g transform="matrix(1,0,0,1,360.986328125,192.71875)"><path transform="matrix(0.011,0,0,-0.011,0,0)" d="M14 445L186 0L274 0L446 445L372 445C275 193 238 90 232 50C227 81 221 97 184 201L91 445ZM545 -228C545 -246 562 -248 573 -248L1126 -248C1129 -248 1154 -249 1154 -229C1154 -207 1133 -208 1121 -208L572 -208C548 -208 545 -222 545 -228ZM1274 221C1274 102 1344 -11 1446 -11C1512 -11 1560 19 1594 52L1594 0L1673 0L1673 722L1597 722L1597 401C1562 429 1515 456 1452 456C1353 456 1274 353 1274 221ZM1352 222C1352 353 1439 394 1497 394L1499 394C1510 394 1542 393 1573 364C1591 347 1594 341 1594 325L1594 134C1594 103 1547 51 1487 51C1433 51 1352 90 1352 222ZM1790 226C1790 102 1877 -11 2008 -11C2071 -11 2123 11 2166 40L2160 106C2116 74 2071 51 2008 51C1932 51 1864 117 1860 220L2170 220L2170 249C2161 420 2063 461 1992 461C1886 461 1790 360 1790 226ZM1865 275C1876 324 1916 399 1992 399C2021 399 2096 386 2113 275ZM2235 223C2235 95 2329 -11 2452 -11C2521 -11 2570 11 2615 40L2610 107C2578 85 2531 53 2453 53C2369 53 2313 126 2313 223C2313 310 2357 397 2454 397C2533 397 2559 376 2598 351L2610 417C2549 452 2517 461 2455 461C2315 461 2235 339 2235 223ZM2725 0L2800 0L2800 722L2725 722ZM2979 0L3063 0L3063 84L2979 84ZM2979 361L3063 361L3063 445L2979 445Z" stroke="rgb(0,0,0)" stroke-opacity="1" stroke-width="8" fill="rgb(0,0,0)" fill-opacity="1"></path></g></g><g><g transform="matrix(1,0,0,1,395.751953125,192.71875)"><path transform="matrix(0.011,0,0,-0.011,0,0)" d="M185 362L246 362L331 722L253 722ZM463 362L524 362L609 722L531 722Z" stroke="rgb(0,0,0)" stroke-opacity="1" stroke-width="8" fill="rgb(0,0,0)" fill-opacity="1"></path></g></g></g></g><g><g><g><g transform="matrix(1,0,0,1,351.982421875,236.615234375)"><path transform="matrix(0.011,0,0,-0.011,0,0)" d="M14 445L186 0L274 0L446 445L372 445C275 193 238 90 232 50C227 81 221 97 184 201L91 445ZM545 -228C545 -246 562 -248 573 -248L1126 -248C1129 -248 1154 -249 1154 -229C1154 -207 1133 -208 1121 -208L572 -208C548 -208 545 -222 545 -228ZM1274 221C1274 102 1344 -11 1446 -11C1512 -11 1560 19 1594 52L1594 0L1673 0L1673 722L1597 722L1597 401C1562 429 1515 456 1452 456C1353 456 1274 353 1274 221ZM1352 222C1352 353 1439 394 1497 394L1499 394C1510 394 1542 393 1573 364C1591 347 1594 341 1594 325L1594 134C1594 103 1547 51 1487 51C1433 51 1352 90 1352 222ZM1790 226C1790 102 1877 -11 2008 -11C2071 -11 2123 11 2166 40L2160 106C2116 74 2071 51 2008 51C1932 51 1864 117 1860 220L2170 220L2170 249C2161 420 2063 461 1992 461C1886 461 1790 360 1790 226ZM1865 275C1876 324 1916 399 1992 399C2021 399 2096 386 2113 275ZM2235 223C2235 95 2329 -11 2452 -11C2521 -11 2570 11 2615 40L2610 107C2578 85 2531 53 2453 53C2369 53 2313 126 2313 223C2313 310 2357 397 2454 397C2533 397 2559 376 2598 351L2610 417C2549 452 2517 461 2455 461C2315 461 2235 339 2235 223ZM2725 0L2800 0L2800 722L2725 722ZM2927 113C2927 67 2957 -11 3041 -11C3151 -11 3206 34 3207 35L3207 0L3283 0L3283 305C3278 389 3212 461 3117 461C3054 461 3008 445 2960 417L2966 350C2999 373 3041 401 3116 401C3129 401 3155 400 3179 371C3204 341 3204 307 3205 279L3205 245C3102 244 2927 219 2927 113ZM3000 114C3000 177 3133 192 3205 193L3205 130C3205 65 3136 51 3093 51C3039 51 3000 78 3000 114ZM3416 0L3491 0L3491 206C3491 352 3602 386 3661 388L3661 455C3555 453 3502 385 3486 360L3486 450L3416 450ZM3721 113C3721 67 3751 -11 3835 -11C3945 -11 4000 34 4001 35L4001 0L4077 0L4077 305C4072 389 4006 461 3911 461C3848 461 3802 445 3754 417L3760 350C3793 373 3835 401 3910 401C3923 401 3949 400 3973 371C3998 341 3998 307 3999 279L3999 245C3896 244 3721 219 3721 113ZM3794 114C3794 177 3927 192 3999 193L3999 130C3999 65 3930 51 3887 51C3833 51 3794 78 3794 114ZM4175 386L4259 386L4259 117C4259 7 4308 -11 4341 -11C4386 -11 4437 -1 4489 27L4473 86C4459 76 4428 53 4385 53C4333 53 4331 112 4331 140L4331 386L4472 386L4472 445L4331 445L4331 571L4261 571L4261 445L4175 445ZM4548 221C4548 85 4653 -11 4767 -11C4881 -11 4987 84 4987 220C4987 345 4895 461 4767 461C4649 461 4548 357 4548 221ZM4626 231C4626 352 4703 399 4767 399C4831 399 4908 353 4908 231C4908 106 4834 53 4767 53C4701 53 4626 105 4626 231ZM5071 0L5146 0L5146 206C5146 352 5257 386 5316 388L5316 455C5210 453 5157 385 5141 360L5141 450L5071 450ZM5428 0L5512 0L5512 84L5428 84ZM5428 361L5512 361L5512 445L5428 445Z" stroke="rgb(0,0,0)" stroke-opacity="1" stroke-width="8" fill="rgb(0,0,0)" fill-opacity="1"></path></g></g><g><g transform="matrix(1,0,0,1,413.671875,236.615234375)"><path transform="matrix(0.011,0,0,-0.011,0,0)" d="M185 362L246 362L331 722L253 722ZM463 362L524 362L609 722L531 722Z" stroke="rgb(0,0,0)" stroke-opacity="1" stroke-width="8" fill="rgb(0,0,0)" fill-opacity="1"></path></g></g></g></g></svg>
</svg>
