<svg xmlns="http://www.w3.org/2000/svg" xmlns:xlink="http://www.w3.org/1999/xlink" x="0" y="0" width="361.9921875" height="499.990234375" style="
        width:361.9921875px;
        height:499.990234375px;
        background: transparent;
        fill: none;
">
        
        
        <svg xmlns="http://www.w3.org/2000/svg" class="role-diagram-draw-area"><g class="shapes-region" style="stroke: black; fill: none;"><g class="arrow-line"><path class="connection real" stroke-dasharray="" d="  M11.25,204.26 L109.75,204.26 L109.75,106.26 L151.25,106.26 L152.75,107.76 L152.73,122.09 M11.25,207.26 L112.75,207.26 L112.75,109.26 L149.75,109.26 L149.73,122.08" style="stroke: rgb(0, 0, 0); stroke-width: 1; fill: none; fill-opacity: 1;"/><g stroke="#000" transform="matrix(0.0012217301724648123,-0.9999992536874144,0.9999992536874144,0.0012217301724648123,151.22220865885419,130.08402709961052)" style="stroke: rgb(0, 0, 0); stroke-width: 1;"><path d=" M10.93,-3.29 Q4.96,-0.45 0,0 Q4.96,0.45 10.93,3.29"/></g></g><g class="composite-shape"><path class="real" d=" M5,85.31 L330.04,85.31 L330.04,238.16 L5,238.16 Z" style="stroke-width: 1; stroke: rgb(0, 0, 0); fill: none; fill-opacity: 1; stroke-dasharray: 6, 6;"/></g><g class="composite-shape"><path class="real" d=" M6,244.16 L329.55,244.16 L329.55,359.38 L6,359.38 Z" style="stroke-width: 1; stroke: rgb(0, 0, 0); fill: none; fill-opacity: 1; stroke-dasharray: 6, 6;"/></g><g class="composite-shape"><path class="real" d=" M41.77,30.96 C41.58,21.61 50.11,13.86 60.82,13.65 C71.53,13.43 80.36,20.83 80.55,30.18 C80.73,39.53 72.2,47.28 61.5,47.49 C50.79,47.71 41.96,40.31 41.77,30.96 Z" style="stroke-width: 1; stroke: rgb(0, 0, 0); fill: rgb(126, 211, 33); fill-opacity: 1;"/></g><g class="composite-shape"><path class="real" d=" M287.05,67.77 L37.41,67.9 C22.49,67.91 10.39,53.48 10.38,35.68 C10.37,17.87 22.46,3.43 37.37,3.42 L287.02,3.29 C301.93,3.29 314.03,17.71 314.04,35.52 C314.05,53.33 301.97,67.77 287.05,67.77 C272.13,67.78 260.03,53.35 260.02,35.55 C260.01,17.74 272.1,3.3 287.02,3.29" style="stroke-width: 1; stroke: rgb(0, 0, 0); fill: none; fill-opacity: 1;"/></g><g class="composite-shape"><path class="real" d=" M207.15,14.08 L238.51,14.08 L238.51,43.88 L207.15,43.88 Z" style="stroke-width: 1; stroke: rgb(0, 0, 0); fill: rgb(255, 0, 31); fill-opacity: 1;"/></g><g class="composite-shape"><path class="real" d=" M143.56,10.85 L161.02,46.22 L125.74,46.04 Z" style="stroke-width: 1; stroke: rgb(0, 0, 0); fill: rgb(71, 201, 229); fill-opacity: 1;"/></g><g class="composite-shape"><path class="real" d=" M137.03,16.31 L154.49,51.69 L119.21,51.51 Z" style="stroke-width: 1; stroke: rgb(0, 0, 0); fill: rgb(71, 201, 229); fill-opacity: 1;"/></g><g class="composite-shape"><path class="real" d=" M201.58,21.68 L232.94,21.68 L232.94,51.48 L201.58,51.48 Z" style="stroke-width: 1; stroke: rgb(0, 0, 0); fill: rgb(255, 0, 31); fill-opacity: 1;"/></g><g class="composite-shape"><path class="real" d=" M196.01,29.28 L227.37,29.28 L227.37,59.08 L196.01,59.08 Z" style="stroke-width: 1; stroke: rgb(0, 0, 0); fill: rgb(255, 0, 31); fill-opacity: 1;"/></g><g class="composite-shape"><path class="real" d=" M130.5,21.78 L147.97,57.15 L112.68,56.98 Z" style="stroke-width: 1; stroke: rgb(0, 0, 0); fill: rgb(71, 201, 229); fill-opacity: 1;"/></g><g class="composite-shape"><path class="real" d=" M35.39,37.09 C35.2,27.74 43.73,19.99 54.44,19.78 C65.15,19.56 73.98,26.96 74.17,36.31 C74.35,45.66 65.83,53.41 55.12,53.62 C44.41,53.84 35.58,46.44 35.39,37.09 Z" style="stroke-width: 1; stroke: rgb(0, 0, 0); fill: rgb(126, 211, 33); fill-opacity: 1;"/></g><g class="composite-shape"><path class="real" d=" M29.01,43.22 C28.83,33.87 37.35,26.12 48.06,25.9 C58.77,25.69 67.6,33.09 67.79,42.44 C67.98,51.79 59.45,59.54 48.74,59.75 C38.03,59.97 29.2,52.56 29.01,43.22 Z" style="stroke-width: 1; stroke: rgb(0, 0, 0); fill: rgb(126, 211, 33); fill-opacity: 1;"/></g><g class="composite-shape"><path class="real" d=" M38.7,106.32 C38.7,101.46 42.64,97.52 47.49,97.52 C52.35,97.52 56.29,101.46 56.29,106.32 C56.29,111.17 52.35,115.11 47.49,115.11 C42.64,115.11 38.7,111.17 38.7,106.32 Z" style="stroke-width: 1; stroke: rgb(0, 0, 0); fill: rgb(126, 211, 33); fill-opacity: 1;"/></g><g class="composite-shape"><path class="real" d=" M10.77,192.11 L28.07,192.11 L28.07,209.41 L10.77,209.41 Z" style="stroke-width: 1; stroke: rgb(0, 0, 0); fill: rgb(255, 0, 30); fill-opacity: 1;"/></g><g class="composite-shape"><path class="real" d=" M47.55,126.64 L56.29,144.11 L38.82,144.11 Z" style="stroke-width: 1; stroke: rgb(0, 0, 0); fill: rgb(71, 201, 229); fill-opacity: 1;"/></g><g class="composite-shape"><path class="real" d=" M45.32,192.11 L62.62,192.11 L62.62,209.41 L45.32,209.41 Z" style="stroke-width: 1; stroke: rgb(0, 0, 0); fill: rgb(255, 0, 32); fill-opacity: 1;"/></g><g class="composite-shape"><path class="real" d=" M82.36,192.11 L99.65,192.11 L99.65,209.41 L82.36,209.41 Z" style="stroke-width: 1; stroke: rgb(0, 0, 0); fill: rgb(255, 0, 30); fill-opacity: 1;"/></g><g class="composite-shape"><path class="real" d=" M35.19,162.12 L43.92,179.59 L26.45,179.59 Z" style="stroke-width: 1; stroke: rgb(0, 0, 0); fill: rgb(71, 201, 229); fill-opacity: 1;"/></g><g class="composite-shape"><path class="real" d=" M92.74,164.52 L101.48,181.99 L84.01,181.99 Z" style="stroke-width: 1; stroke: rgb(0, 0, 0); fill: rgb(71, 201, 229); fill-opacity: 1;"/></g><g class="composite-shape"><path class="real" d=" M74.59,140.81 L83.32,158.28 L65.85,158.28 Z" style="stroke-width: 1; stroke: rgb(0, 0, 0); fill: rgb(71, 201, 229); fill-opacity: 1;"/></g><g class="arrow-line"><path class="connection real" stroke-dasharray="" d="  M47.49,115.11 L47.54,124.64" style="stroke: rgb(0, 0, 0); stroke-width: 1; fill: none; fill-opacity: 1;"/><g stroke="#000" transform="matrix(-0.00488690245402442,-0.9999880590209089,0.9999880590209089,-0.00488690245402442,47.55112472447996,126.63978320819075)" style="stroke: rgb(0, 0, 0); stroke-width: 1;"><path d=" M7.65,-2.3 Q3.47,-0.31 0,0 Q3.47,0.32 7.65,2.3"/></g></g><g class="arrow-line"><path class="connection real" stroke-dasharray="" d="  M56.29,144.11 L66.71,150.88" style="stroke: rgb(0, 0, 0); stroke-width: 1; fill: none; fill-opacity: 1;"/><g stroke="#000" transform="matrix(-0.838385280663431,-0.5450780872195286,0.5450780872195286,-0.838385280663431,68.38333129882812,151.97291768391918)" style="stroke: rgb(0, 0, 0); stroke-width: 1;"><path d=" M7.65,-2.3 Q3.47,-0.31 0,0 Q3.47,0.32 7.65,2.3"/></g></g><g class="arrow-line"><path class="connection real" stroke-dasharray="" d="  M40.38,143.97 L35.88,160.44" style="stroke: rgb(0, 0, 0); stroke-width: 1; fill: none; fill-opacity: 1;"/><g stroke="#000" transform="matrix(0.2635363398406118,-0.9646494687623135,0.9646494687623135,0.2635363398406118,35.35771210493496,162.37394825971415)" style="stroke: rgb(0, 0, 0); stroke-width: 1;"><path d=" M7.65,-2.3 Q3.47,-0.31 0,0 Q3.47,0.32 7.65,2.3"/></g></g><g class="arrow-line"><path class="connection real" stroke-dasharray="" d="  M75.88,157.28 L87.85,169.71" style="stroke: rgb(0, 0, 0); stroke-width: 1; fill: none; fill-opacity: 1;"/><g stroke="#000" transform="matrix(-0.6937790128883843,-0.7201879485770497,0.7201879485770497,-0.6937790128883843,89.239990234375,171.1529134114572)" style="stroke: rgb(0, 0, 0); stroke-width: 1;"><path d=" M7.65,-2.3 Q3.47,-0.31 0,0 Q3.47,0.32 7.65,2.3"/></g></g><g class="arrow-line"><path class="connection real" stroke-dasharray="" d="  M101.48,180.99 L100.13,191.8" style="stroke: rgb(0, 0, 0); stroke-width: 1; fill: none; fill-opacity: 1;"/><g stroke="#000" transform="matrix(0.12412104356139263,-0.992267084279848,0.992267084279848,0.12412104356139263,99.87854817928718,193.78929130292187)" style="stroke: rgb(0, 0, 0); stroke-width: 1;"><path d=" M7.65,-2.3 Q3.47,-0.31 0,0 Q3.47,0.32 7.65,2.3"/></g></g><g class="arrow-line"><path class="connection real" stroke-dasharray="" d="  M84.01,181.99 L64.42,191.26" style="stroke: rgb(0, 0, 0); stroke-width: 1; fill: none; fill-opacity: 1;"/><g stroke="#000" transform="matrix(0.9038586616873115,-0.427831181300314,0.427831181300314,0.9038586616873115,62.615301206530035,192.1141701241582)" style="stroke: rgb(0, 0, 0); stroke-width: 1;"><path d=" M7.65,-2.3 Q3.47,-0.31 0,0 Q3.47,0.32 7.65,2.3"/></g></g><g class="arrow-line"><path class="connection real" stroke-dasharray="" d="  M43.2,179.79 L51.97,190.41" style="stroke: rgb(0, 0, 0); stroke-width: 1; fill: none; fill-opacity: 1;"/><g stroke="#000" transform="matrix(-0.6368859147353654,-0.7709580608643357,0.7709580608643357,-0.6368859147353654,53.239990234375,191.95291341145827)" style="stroke: rgb(0, 0, 0); stroke-width: 1;"><path d=" M7.65,-2.3 Q3.47,-0.31 0,0 Q3.47,0.32 7.65,2.3"/></g></g><g class="arrow-line"><path class="connection real" stroke-dasharray="" d="  M33.62,179.79 L22.84,190.57" style="stroke: rgb(0, 0, 0); stroke-width: 1; fill: none; fill-opacity: 1;"/><g stroke="#000" transform="matrix(0.7071067811865474,-0.7071067811865477,0.7071067811865477,0.7071067811865474,21.42238339688356,191.9865217643233)" style="stroke: rgb(0, 0, 0); stroke-width: 1;"><path d=" M7.65,-2.3 Q3.47,-0.31 0,0 Q3.47,0.32 7.65,2.3"/></g></g><g class="composite-shape"><path class="real" d=" M120.44,129.69 L195,129.69 L195,169.69 L120.44,169.69 Z" style="stroke-width: 1; stroke: rgb(0, 0, 0); fill: rgb(255, 255, 255); fill-opacity: 1;"/></g><g class="composite-shape"><path class="real" d=" M177.06,121.04 L177.06,119.05 C177.06,118.48 177.52,118.01 178.1,118.01 L181.19,118.01 C181.77,118.01 182.23,118.48 182.23,119.05 L182.23,121.04 C182.69,121.16 183.14,121.32 183.58,121.51 C184.01,121.68 184.43,121.88 184.84,122.12 L186.24,120.72 C186.64,120.31 187.3,120.31 187.7,120.72 L189.89,122.91 C190.3,123.32 190.3,123.97 189.89,124.38 L188.49,125.78 C188.97,126.61 189.32,127.49 189.54,128.4 L191.42,128.4 C191.99,128.4 192.45,128.86 192.45,129.43 L192.45,132.54 C192.45,133.11 191.99,133.57 191.42,133.57 L189.47,133.57 C189.35,134.01 189.2,134.45 189.02,134.87 C188.85,135.3 188.65,135.72 188.42,136.12 L189.79,137.49 C190.2,137.9 190.2,138.55 189.79,138.96 L187.6,141.15 C187.2,141.56 186.55,141.56 186.14,141.15 L184.82,139.83 C184.02,140.31 183.15,140.68 182.23,140.93 L182.23,142.92 C182.23,143.49 181.77,143.95 181.19,143.95 L178.1,143.95 C177.52,143.95 177.06,143.49 177.06,142.92 L177.06,140.93 C176.61,140.81 176.17,140.66 175.74,140.47 C175.3,140.3 174.87,140.09 174.45,139.85 L173.05,141.25 C172.65,141.66 171.99,141.66 171.59,141.25 L169.4,139.06 C168.99,138.65 168.99,138 169.4,137.59 L170.8,136.19 C170.32,135.36 169.97,134.48 169.75,133.57 L167.88,133.57 C167.3,133.57 166.84,133.11 166.84,132.54 L166.84,129.43 C166.84,128.86 167.3,128.4 167.87,128.4 L169.82,128.4 C169.94,127.95 170.09,127.52 170.27,127.09 C170.44,126.66 170.64,126.25 170.87,125.85 L169.5,124.48 C169.09,124.07 169.09,123.42 169.49,123.01 L171.69,120.82 C172.09,120.41 172.74,120.41 173.15,120.81 L174.47,122.14 C175.27,121.66 176.14,121.28 177.06,121.04 Z  M173.96,130.98 C173.96,134.13 176.51,136.68 179.64,136.68 C182.78,136.68 185.33,134.13 185.33,130.98 C185.33,127.84 182.78,125.29 179.64,125.29 C176.51,125.29 173.96,127.84 173.96,130.98 Z" style="stroke-width: 1; stroke: rgb(0, 0, 0); fill: rgb(225, 225, 225); fill-opacity: 1;"/></g><g class="shape"><polygon class="real" points=" 285.7,141.76 279.4,208.51 248.4,208.51" style="stroke: rgb(0, 0, 0); stroke-width: 1; fill: rgb(198, 198, 198); fill-opacity: 1;"/></g><g class="shape"><polygon class="real" points=" 257.44,112.51 233.4,175.51 203.4,175.51" style="stroke: rgb(0, 0, 0); stroke-width: 1; fill: rgb(198, 198, 198); fill-opacity: 1;"/></g><g class="shape"><polygon class="real" points=" 285.7,141.76 323.4,208.51 289.4,208.51" style="stroke: rgb(0, 0, 0); stroke-width: 1; fill: rgb(198, 198, 198); fill-opacity: 1;"/></g><g class="composite-shape"><path class="real" d=" M277.99,141.76 C277.99,137.21 281.44,133.51 285.7,133.51 C289.95,133.51 293.4,137.21 293.4,141.76 C293.4,146.32 289.95,150.01 285.7,150.01 C281.44,150.01 277.99,146.32 277.99,141.76 Z" style="stroke-width: 1; stroke: rgb(0, 0, 0); fill: rgb(255, 255, 255); fill-opacity: 1;"/></g><g class="arrow-line"><path class="connection real" stroke-dasharray="" d="  M277.99,141.76 L269.4,148.51" style="stroke: rgb(0, 0, 0); stroke-width: 1; fill: none; fill-opacity: 1;"/></g><g class="arrow-line"><path class="connection real" stroke-dasharray="" d="  M257.44,112.51 L280.9,134.79" style="stroke: rgb(0, 0, 0); stroke-width: 1; fill: none; fill-opacity: 1;"/></g><g class="composite-shape"><path class="real" d=" M249.73,112.51 C249.73,107.96 253.18,104.26 257.44,104.26 C261.69,104.26 265.14,107.96 265.14,112.51 C265.14,117.07 261.69,120.76 257.44,120.76 C253.18,120.76 249.73,117.07 249.73,112.51 Z" style="stroke-width: 1; stroke: rgb(0, 0, 0); fill: rgb(255, 255, 255); fill-opacity: 1;"/></g><g class="arrow-line"><path class="connection real" stroke-dasharray="" d="  M278.99,145.76 L260.4,172.51" style="stroke: rgb(0, 0, 0); stroke-width: 1; fill: none; fill-opacity: 1;"/></g><g class="arrow-line"><path class="connection real" stroke-dasharray="" d="  M178.43,329.91 L178.43,363.38 L83.55,363.38 L83.55,380.93" style="stroke: rgb(0, 0, 0); stroke-width: 1; fill: none; fill-opacity: 1;"/><g stroke="#000" transform="matrix(-1.8369701987210297e-16,-1,1,-1.8369701987210297e-16,83.5511474609375,382.92543029785156)" style="stroke: rgb(0, 0, 0); stroke-width: 1;"><path d=" M10.93,-3.29 Q4.96,-0.45 0,0 Q4.96,0.45 10.93,3.29"/></g></g><g class="composite-shape"><path class="real" d=" M324.63,379.34 L324.63,476.47 C324.63,480.16 309.17,483.15 290.09,483.15 C271.02,483.15 255.55,480.16 255.55,476.47 L255.55,379.34 C255.55,375.65 271.02,372.65 290.09,372.65 C309.17,372.65 324.63,375.65 324.63,379.34 C324.63,383.03 309.17,386.02 290.09,386.02 C271.02,386.02 255.55,383.03 255.55,379.34" style="stroke-width: 1; stroke: rgb(0, 0, 0); fill: rgb(255, 255, 255); fill-opacity: 1;"/></g><g class="grouped-shape"><g class="composite-shape"><path class="real" d=" M271.13,409.51 L317.63,409.51 L317.63,422.67 L271.13,422.67 Z" style="stroke-width: 1; stroke: rgb(0, 0, 0); fill: rgb(247, 240, 228); fill-opacity: 1;"/></g><g class="composite-shape"><path class="real" d=" M271.13,422.67 L317.63,422.67 L317.63,435.84 L271.13,435.84 Z" style="stroke-width: 1; stroke: rgb(0, 0, 0); fill: rgb(247, 240, 228); fill-opacity: 1;"/></g><g class="composite-shape"><path class="real" d=" M271.13,435.84 L317.63,435.84 L317.63,449.01 L271.13,449.01 Z" style="stroke-width: 1; stroke: rgb(0, 0, 0); fill: rgb(247, 240, 228); fill-opacity: 1;"/></g><g class="composite-shape"><path class="real" d=" M271.13,449.01 L317.63,449.01 L317.63,462.18 L271.13,462.18 Z" style="stroke-width: 1; stroke: rgb(0, 0, 0); fill: rgb(247, 240, 228); fill-opacity: 1;"/></g></g><g class="composite-shape"><path class="real" d=" M288.02,467.92 L296.6,467.92 M292.31,463.65 L292.31,472.18" style="stroke-width: 1; stroke: rgb(0, 0, 0); fill: none; fill-opacity: 1;"/></g><g class="composite-shape"><path class="real" d=" M52.29,62.33 L52.52,83.21 L56.07,83.18 L49.09,94 L41.88,83.33 L45.43,83.29 L45.19,62.41 Z" style="stroke-width: 1; stroke: rgb(0, 0, 0); fill: rgb(255, 255, 255); fill-opacity: 1;"/></g><g class="arrow-line"><path class="connection real" stroke-dasharray="" d="  M194.84,151.81 L207.64,151.81 M194.84,154.81 L207.64,154.81" style="stroke: rgb(0, 0, 0); stroke-width: 1; fill: none; fill-opacity: 1;"/><g stroke="#000" transform="matrix(-1,1.2246467991473532e-16,-1.2246467991473532e-16,-1,215.63999023437495,153.31291097005314)" style="stroke: rgb(0, 0, 0); stroke-width: 1;"><path d=" M10.93,-3.29 Q4.96,-0.45 0,0 Q4.96,0.45 10.93,3.29"/></g></g><g class="composite-shape"><path class="real" d=" M178.43,271.19 L221.23,300.55 L178.43,329.91 L135.63,300.55 Z" style="stroke-width: 1; stroke: rgb(0, 0, 0); fill: rgb(255, 255, 255); fill-opacity: 1;"/></g><g class="composite-shape"><path class="real" d=" M17.55,310.38 L130.23,310.38 L130.23,354.75 L17.55,354.75 Z" style="stroke-width: 2; stroke: rgb(0, 0, 0); fill: rgb(208, 208, 208); fill-opacity: 1; stroke-dasharray: 2.25, 3.685;"/></g><g class="composite-shape"><path class="real" d=" M249.55,262.38 L322.55,262.38 L322.55,345.38 L249.55,345.38 Z" style="stroke-width: 2; stroke: rgb(0, 0, 0); fill: rgb(208, 208, 208); fill-opacity: 1; stroke-dasharray: 2.25, 3.685;"/></g><g class="arrow-line"><path class="connection real" stroke-dasharray="" d="  M216.51,433.15 L246.88,433.15 M216.51,436.15 L246.88,436.15" style="stroke: rgb(0, 0, 0); stroke-width: 1; fill: none; fill-opacity: 1;"/><g stroke="#000" transform="matrix(-1,1.2246467991473532e-16,-1.2246467991473532e-16,-1,254.88333333333333,434.65270996093756)" style="stroke: rgb(0, 0, 0); stroke-width: 1;"><path d=" M10.93,-3.29 Q4.96,-0.45 0,0 Q4.96,0.45 10.93,3.29"/></g></g><g class="arrow-line"><path class="connection real" stroke-dasharray="" d="  M178.43,248.38 L178.43,267.19" style="stroke: rgb(126, 211, 33); stroke-opacity: 1; stroke-width: 3; fill: none; fill-opacity: 1;"/><g stroke="rgb(126,211,33)" stroke-opacity="1" transform="matrix(-1.8369701987210297e-16,-1,1,-1.8369701987210297e-16,178.42666015624997,271.1864583333318)" style="stroke: rgb(126, 211, 33); stroke-width: 3;"><path d=" M13.99,-4.21 Q6.35,-0.58 0,0 Q6.35,0.58 13.99,4.21"/></g></g><g class="grouped-shape"><g class="composite-shape"><path class="real" d=" M74.07,239.47 C74.07,236.47 76.5,234.05 79.49,234.05 L102.22,234.05 C105.21,234.05 107.64,236.47 107.64,239.47 L107.64,265.24 C107.64,268.24 105.21,270.66 102.22,270.66 L79.49,270.66 C76.5,270.66 74.07,268.24 74.07,265.24 Z" style="stroke-width: 2; stroke: rgb(0, 0, 0); fill: rgb(255, 255, 255); fill-opacity: 1;"/></g><g class="arrow-line"><path class="connection real" stroke-dasharray="" d="  M74.13,244.51 L107.64,244.51" style="stroke: rgb(0, 0, 0); stroke-width: 2; fill: none; fill-opacity: 1;"/></g><g class="arrow-line"><path class="connection real" stroke-dasharray="" d="  M74.1,252.79 L107.61,252.79" style="stroke: rgb(0, 0, 0); stroke-width: 2; fill: none; fill-opacity: 1;"/></g><g class="arrow-line"><path class="connection real" stroke-dasharray="" d="  M73.65,261.07 L107.16,261.07" style="stroke: rgb(0, 0, 0); stroke-width: 2; fill: none; fill-opacity: 1;"/></g><g class="composite-shape"><path class="real" d=" M78.09,265.24 C78.09,264.62 78.59,264.12 79.2,264.12 L85.16,264.12 C85.78,264.12 86.27,264.62 86.27,265.24 L86.27,266.53 C86.27,267.14 85.78,267.64 85.16,267.64 L79.2,267.64 C78.59,267.64 78.09,267.14 78.09,266.53 Z" style="stroke-width: 2; stroke: none; stroke-opacity: 1; fill: rgb(0, 0, 0); fill-opacity: 1;"/></g><g class="composite-shape"><path class="real" d=" M78.09,256.66 C78.09,256.05 78.59,255.55 79.2,255.55 L85.16,255.55 C85.78,255.55 86.27,256.05 86.27,256.66 L86.27,257.95 C86.27,258.57 85.78,259.06 85.16,259.06 L79.2,259.06 C78.59,259.06 78.09,258.57 78.09,257.95 Z" style="stroke-width: 2; stroke: none; stroke-opacity: 1; fill: rgb(0, 0, 0); fill-opacity: 1;"/></g><g class="composite-shape"><path class="real" d=" M78.09,248.09 C78.09,247.47 78.59,246.98 79.2,246.98 L85.16,246.98 C85.78,246.98 86.27,247.47 86.27,248.09 L86.27,249.38 C86.27,249.99 85.78,250.49 85.16,250.49 L79.2,250.49 C78.59,250.49 78.09,249.99 78.09,249.38 Z" style="stroke-width: 2; stroke: none; stroke-opacity: 1; fill: rgb(0, 0, 0); fill-opacity: 1;"/></g><g class="composite-shape"><path class="real" d=" M78.09,239.52 C78.09,238.9 78.59,238.41 79.2,238.41 L85.16,238.41 C85.78,238.41 86.27,238.9 86.27,239.52 L86.27,240.81 C86.27,241.42 85.78,241.92 85.16,241.92 L79.2,241.92 C78.59,241.92 78.09,241.42 78.09,240.81 Z" style="stroke-width: 2; stroke: none; stroke-opacity: 1; fill: rgb(0, 0, 0); fill-opacity: 1;"/></g><g class="composite-shape"><path class="real" d=" M92.97,261.01 L96.85,261.01 L96.85,251.07 C96.85,250.01 97.93,249.16 99.25,249.16 C100.58,249.16 101.65,250.01 101.65,251.07 L101.65,261.01 L105.53,261.01 C106.49,261.01 107.27,261.63 107.27,262.39 L107.27,263.01 C107.27,263.77 106.49,264.39 105.53,264.39 L92.97,264.39 C92.01,264.39 91.23,263.77 91.23,263.01 L91.23,262.39 C91.23,261.63 92.01,261.01 92.97,261.01 Z" style="stroke-width: 2; stroke: rgb(0, 0, 0); fill: rgb(255, 255, 255); fill-opacity: 1;"/></g><g class="composite-shape"><path class="real" d=" M94.73,264.39 L103.8,264.39 L106.41,272.9 L102.67,272.9 L101.56,269.64 L100.45,272.9 L92.11,272.9 L94.73,264.39 Z" style="stroke-width: 2; stroke: rgb(0, 0, 0); fill: rgb(255, 255, 255); fill-opacity: 1;"/></g></g><g class="composite-shape"><path class="real" d=" M5,368.38 L247.55,368.38 L247.55,485.38 L5,485.38 Z" style="stroke-width: 1; stroke: rgb(0, 0, 0); fill: none; fill-opacity: 1; stroke-dasharray: 6, 6;"/></g><g class="arrow-line"><path class="connection real" stroke-dasharray="" d="  M38.48,229.38 L38.48,240.93 L64.55,240.93" style="stroke: rgb(144, 19, 254); stroke-opacity: 1; stroke-width: 3; fill: none; fill-opacity: 1;"/><g stroke="rgb(144,19,254)" stroke-opacity="1" transform="matrix(-1,1.2246467991473532e-16,-1.2246467991473532e-16,-1,68.5511474609375,240.92543029785156)" style="stroke: rgb(144, 19, 254); stroke-width: 3;"><path d=" M13.99,-4.21 Q6.35,-0.58 0,0 Q6.35,0.58 13.99,4.21"/></g></g><g class="arrow-line"><path class="connection real" stroke-dasharray="" d="  M111.55,241.38 L142.55,241.38" style="stroke: rgb(144, 19, 254); stroke-opacity: 1; stroke-width: 3; fill: none; fill-opacity: 1;"/><g stroke="rgb(144,19,254)" stroke-opacity="1" transform="matrix(-1,1.2246467991473532e-16,-1.2246467991473532e-16,-1,146.55114746093747,241.3799743652344)" style="stroke: rgb(144, 19, 254); stroke-width: 3;"><path d=" M13.99,-4.21 Q6.35,-0.58 0,0 Q6.35,0.58 13.99,4.21"/></g></g><g class="arrow-line"><path class="connection real" stroke-dasharray="" d="  M220.55,300.55 L244.55,300.55" style="stroke: rgb(0, 0, 0); stroke-width: 1; fill: none; fill-opacity: 1;"/><g stroke="#000" transform="matrix(-1,1.2246467991473532e-16,-1.2246467991473532e-16,-1,246.55114746093747,300.54973958333176)" style="stroke: rgb(0, 0, 0); stroke-width: 1;"><path d=" M10.93,-3.29 Q4.96,-0.45 0,0 Q4.96,0.45 10.93,3.29"/></g></g><g class="arrow-line"><path class="connection real" stroke-dasharray="" d="  M84.55,273.93 L84.55,303.93" style="stroke: rgb(144, 19, 254); stroke-opacity: 1; stroke-width: 3; fill: none; fill-opacity: 1;"/><g stroke="rgb(144,19,254)" stroke-opacity="1" transform="matrix(-1.8369701987210297e-16,-1,1,-1.8369701987210297e-16,84.5511474609375,307.92543029785156)" style="stroke: rgb(144, 19, 254); stroke-width: 3;"><path d=" M13.99,-4.21 Q6.35,-0.58 0,0 Q6.35,0.58 13.99,4.21"/></g></g><g class="composite-shape"><path class="real" d=" M21.51,383.38 L120.55,383.38 L120.55,479.93 L21.51,479.93 Z" style="stroke-width: 2; stroke: rgb(0, 0, 0); fill: rgb(208, 208, 208); fill-opacity: 1; stroke-dasharray: 2.25, 3.685;"/></g><g class="composite-shape"><path class="real" d=" M150.55,212.38 L209.55,212.38 L209.55,250.38 L150.55,250.38 Z" style="stroke-width: 2; stroke: rgb(0, 0, 0); fill: rgb(208, 208, 208); fill-opacity: 1; stroke-dasharray: 2.25, 3.685;"/></g><g class="arrow-line"><path class="connection real" stroke-dasharray="" d="  M279.4,227.55 L279.4,241.55 L215.55,241.55" style="stroke: rgb(126, 211, 33); stroke-opacity: 1; stroke-width: 3; fill: none; fill-opacity: 1;"/><g stroke="rgb(126,211,33)" stroke-opacity="1" transform="matrix(1,-2.4492935982947064e-16,2.4492935982947064e-16,1,211.5511474609375,241.5520650227864)" style="stroke: rgb(126, 211, 33); stroke-width: 3;"><path d=" M13.99,-4.21 Q6.35,-0.58 0,0 Q6.35,0.58 13.99,4.21"/></g></g><g class="composite-shape"><path class="real" d=" M143.55,383.38 L216.51,383.38 L216.51,479.93 L143.55,479.93 Z" style="stroke-width: 2; stroke: rgb(0, 0, 0); fill: rgb(208, 208, 208); fill-opacity: 1; stroke-dasharray: 2.25, 3.685;"/></g><g class="arrow-line"><path class="connection real" stroke-dasharray="" d="  M120.55,431.55 L141.51,431.86" style="stroke: rgb(0, 0, 0); stroke-width: 1; fill: none; fill-opacity: 1;"/><g stroke="#000" transform="matrix(-0.9998873545930577,-0.015009267966723956,0.015009267966723956,-0.9998873545930577,143.50781250000003,431.89453125)" style="stroke: rgb(0, 0, 0); stroke-width: 1;"><path d=" M10.93,-3.29 Q4.96,-0.45 0,0 Q4.96,0.45 10.93,3.29"/></g></g><g/></g><g/><g><g><rect rx="0" ry="0" x="5.000000000000057" y="85.31302083333324" width="13" height="19" style="stroke: rgb(0, 0, 0); stroke-width: 1; fill: rgb(237, 233, 233); fill-opacity: 1;"/></g><g><rect rx="0" ry="0" x="6" y="244.24624837239577" width="13" height="19" style="stroke: rgb(0, 0, 0); stroke-width: 1; fill: rgb(237, 233, 233); fill-opacity: 1;"/></g><g><rect rx="0" ry="0" x="5" y="368.0866768071762" width="13" height="19" style="stroke: rgb(0, 0, 0); stroke-width: 1; fill: rgb(237, 233, 233); fill-opacity: 1;"/></g><g><rect rx="0" ry="0" x="39.5511474609375" y="401.3799743652344" width="67" height="33" style="stroke: rgb(0, 0, 0); stroke-width: 1; fill: rgb(233, 233, 233); fill-opacity: 1;"/></g><g><rect rx="0" ry="0" x="30.5511474609375" y="439.3799743652344" width="84" height="33" style="stroke: rgb(0, 0, 0); stroke-width: 1; fill: rgb(233, 233, 233); fill-opacity: 1;"/></g></g><g/></svg>
        <svg xmlns="http://www.w3.org/2000/svg" xmlns:xlink="http://www.w3.org/1999/xlink" width="360" height="497.998046875" style="width:360px;height:497.998046875px;font-family:Asana-Math, Asana;background:transparent;"><g><g><g><text x="256.748046875" y="387.177734375" style="white-space:pre;stroke:none;fill:rgb(0,0,0);fill-opacity:1;font-size:13.2px;font-family:Arial, Helvetica, sans-serif;font-weight:700;font-style:normal;dominant-baseline:text-before-edge;text-decoration:none solid rgb(0, 0, 0);">HyperAST</text></g></g></g><g><g><g><text x="272.197265625" y="10.859375" style="white-space:pre;stroke:none;fill:rgb(0,0,0);fill-opacity:1;font-size:15.84px;font-family:Arial, Helvetica, sans-serif;font-weight:400;font-style:normal;dominant-baseline:text-before-edge;text-decoration:none solid rgb(0, 0, 0);">GIT</text></g></g></g><g><g><g><text x="119.921875" y="44.12109375" style="white-space:pre;stroke:none;fill:rgb(0,0,0);fill-opacity:1;font-size:11px;font-family:Arial, Helvetica, sans-serif;font-weight:400;font-style:normal;dominant-baseline:text-before-edge;text-decoration:none solid rgb(0, 0, 0);">Tree</text></g></g></g><g><g><g><text x="200.703125" y="37.5" style="white-space:pre;stroke:none;fill:rgb(0,0,0);fill-opacity:1;font-size:11px;font-family:Arial, Helvetica, sans-serif;font-weight:400;font-style:normal;dominant-baseline:text-before-edge;text-decoration:none solid rgb(0, 0, 0);">Blob</text></g></g></g><g><g><g><text x="30.908203125" y="38.583984375" style="white-space:pre;stroke:none;fill:rgb(0,0,0);fill-opacity:1;font-size:9.9px;font-family:Arial, Helvetica, sans-serif;font-weight:400;font-style:normal;dominant-baseline:text-before-edge;text-decoration:none solid rgb(0, 0, 0);">Commit</text></g></g></g><g><g><g><text x="49.931640625" y="193.984375" style="white-space:pre;stroke:none;fill:rgb(0,0,0);fill-opacity:1;font-size:11px;font-family:Arial, Helvetica, sans-serif;font-weight:700;font-style:normal;dominant-baseline:text-before-edge;text-decoration:none solid rgb(0, 0, 0);">A</text></g></g></g><g><g><g><text x="51.9921875" y="177.65625" style="white-space:pre;stroke:none;fill:rgb(71,71,71);fill-opacity:1;font-size:7.7px;font-family:Arial, Helvetica, sans-serif;font-weight:400;font-style:normal;dominant-baseline:text-before-edge;text-decoration:none solid rgb(71, 71, 71);">A.java</text></g></g></g><g><g><g><text x="88.30078125" y="152.275390625" style="white-space:pre;stroke:none;fill:rgb(71,71,71);fill-opacity:1;font-size:7.7px;font-family:Arial, Helvetica, sans-serif;font-weight:400;font-style:normal;dominant-baseline:text-before-edge;text-decoration:none solid rgb(71, 71, 71);">p</text></g></g></g><g><g><g><text x="57.7734375" y="131.3671875" style="white-space:pre;stroke:none;fill:rgb(71,71,71);fill-opacity:1;font-size:7.7px;font-family:Arial, Helvetica, sans-serif;font-weight:400;font-style:normal;dominant-baseline:text-before-edge;text-decoration:none solid rgb(71, 71, 71);">src</text></g></g></g><g><g><g><text x="88.9453125" y="169.833984375" style="white-space:pre;stroke:none;fill:rgb(0,0,0);fill-opacity:1;font-size:11px;font-family:Arial, Helvetica, sans-serif;font-weight:700;font-style:normal;dominant-baseline:text-before-edge;text-decoration:none solid rgb(0, 0, 0);">B</text></g></g></g><g><g><g><text x="125.99609375" y="135.556640625" style="white-space:pre;stroke:none;fill:rgb(0,0,0);fill-opacity:1;font-size:11px;font-family:Arial, Helvetica, sans-serif;font-weight:400;font-style:normal;dominant-baseline:text-before-edge;text-decoration:none solid rgb(0, 0, 0);">Parsing </text></g></g><g><g><text x="125.99609375" y="150.947265625" style="white-space:pre;stroke:none;fill:rgb(0,0,0);fill-opacity:1;font-size:11px;font-family:Arial, Helvetica, sans-serif;font-weight:400;font-style:normal;dominant-baseline:text-before-edge;text-decoration:none solid rgb(0, 0, 0);">Blobs (code)</text></g></g></g><g><g><g><text x="281.30859375" y="135.380859375" style="white-space:pre;stroke:none;fill:rgb(0,0,0);fill-opacity:1;font-size:11px;font-family:Arial, Helvetica, sans-serif;font-weight:400;font-style:normal;dominant-baseline:text-before-edge;text-decoration:none solid rgb(0, 0, 0);">A</text></g></g></g><g transform="matrix(0.5541181993382275,-0.8324379983891655,0.8324379983891655,0.5541181993382275,-27.19333040588259,260.55959957687)"><g><g><text x="211.6015625" y="149.21875" style="white-space:pre;stroke:none;fill:rgb(0,0,0);fill-opacity:1;font-size:11px;font-family:Arial, Helvetica, sans-serif;font-weight:400;font-style:normal;dominant-baseline:text-before-edge;text-decoration:none solid rgb(0, 0, 0);">imports</text></g></g></g><g transform="matrix(0.4404093156676426,-0.8977971010607902,0.8977971010607902,0.4404093156676426,-19.379859231141666,345.7237131015356)"><g><g><text x="251.4501953125" y="181.962890625" style="white-space:pre;stroke:none;fill:rgb(0,0,0);fill-opacity:1;font-size:11px;font-family:Arial, Helvetica, sans-serif;font-weight:400;font-style:normal;dominant-baseline:text-before-edge;text-decoration:none solid rgb(0, 0, 0);">float x;</text></g></g></g><g transform="matrix(0.8002083194146346,-0.5997221402779843,0.5997221402779843,0.8002083194146346,-44.173034426018205,184.16196731301488)"><g><g><text x="241.3916015625" y="153.6376953125" style="white-space:pre;stroke:none;fill:rgb(0,0,0);fill-opacity:1;font-size:9.9px;font-family:Arial, Helvetica, sans-serif;font-weight:400;font-style:normal;dominant-baseline:text-before-edge;text-decoration:none solid rgb(0, 0, 0);">public</text></g></g></g><g transform="matrix(0.6790570310840532,-0.7340855185435217,0.7340855185435217,0.6790570310840532,-53.53727260491007,241.9985448160857)"><g><g><text x="238.720703125" y="177.4853515625" style="white-space:pre;stroke:none;fill:rgb(0,0,0);fill-opacity:1;font-size:9.9px;font-family:Arial, Helvetica, sans-serif;font-weight:400;font-style:normal;dominant-baseline:text-before-edge;text-decoration:none solid rgb(0, 0, 0);">class</text></g></g></g><g transform="matrix(0.44994257995570003,0.893057486807433,-0.893057486807433,0.44994257995570003,326.05429337120245,-169.39195163732677)"><g><g><text x="278.2275390625" y="173.544921875" style="white-space:pre;stroke:none;fill:rgb(0,0,0);fill-opacity:1;font-size:11px;font-family:Arial, Helvetica, sans-serif;font-weight:400;font-style:normal;dominant-baseline:text-before-edge;text-decoration:none solid rgb(0, 0, 0);">int f() {...}</text></g></g></g><g><g><g><text x="213.837890625" y="301.416015625" style="white-space:pre;stroke:none;fill:rgb(0,0,0);fill-opacity:1;font-size:11px;font-family:Arial, Helvetica, sans-serif;font-weight:400;font-style:normal;dominant-baseline:text-before-edge;text-decoration:none solid rgb(0, 0, 0);">yes</text></g></g></g><g><g><g><text x="183.037109375" y="330.78125" style="white-space:pre;stroke:none;fill:rgb(0,0,0);fill-opacity:1;font-size:11px;font-family:Arial, Helvetica, sans-serif;font-weight:400;font-style:normal;dominant-baseline:text-before-edge;text-decoration:none solid rgb(0, 0, 0);">no</text></g></g></g><g><g><g><text x="55.546875" y="68.408203125" style="white-space:pre;stroke:none;fill:rgb(0,0,0);fill-opacity:1;font-size:11px;font-family:Arial, Helvetica, sans-serif;font-weight:400;font-style:normal;dominant-baseline:text-before-edge;text-decoration:none solid rgb(0, 0, 0);">per commit</text></g></g></g><g><g><g><text x="274.873046875" y="408.720703125" style="white-space:pre;stroke:none;fill:rgb(0,0,0);fill-opacity:1;font-size:9.9px;font-family:Arial, Helvetica, sans-serif;font-weight:400;font-style:normal;dominant-baseline:text-before-edge;text-decoration:none solid rgb(0, 0, 0);">type</text></g></g></g><g><g><g><text x="274.6484375" y="422.978515625" style="white-space:pre;stroke:none;fill:rgb(0,0,0);fill-opacity:1;font-size:9.9px;font-family:Arial, Helvetica, sans-serif;font-weight:400;font-style:normal;dominant-baseline:text-before-edge;text-decoration:none solid rgb(0, 0, 0);">label</text></g></g></g><g><g><g><text x="274.84375" y="436.240234375" style="white-space:pre;stroke:none;fill:rgb(0,0,0);fill-opacity:1;font-size:9.9px;font-family:Arial, Helvetica, sans-serif;font-weight:400;font-style:normal;dominant-baseline:text-before-edge;text-decoration:none solid rgb(0, 0, 0);">children</text></g></g></g><g><g><g><text x="275.537109375" y="449.4921875" style="white-space:pre;stroke:none;fill:rgb(0,0,0);fill-opacity:1;font-size:9.9px;font-family:Arial, Helvetica, sans-serif;font-weight:400;font-style:normal;dominant-baseline:text-before-edge;text-decoration:none solid rgb(0, 0, 0);">hash</text></g></g></g><g><g><g><text x="270.7421875" y="469.052734375" style="white-space:pre;stroke:none;fill:rgb(0,0,0);fill-opacity:1;font-size:11px;font-family:Arial, Helvetica, sans-serif;font-weight:400;font-style:italic;dominant-baseline:text-before-edge;text-decoration:none solid rgb(0, 0, 0);">metadata</text></g></g></g><g><g><g><text x="218.9453125" y="415.791015625" style="white-space:pre;stroke:none;fill:rgb(0,0,0);fill-opacity:1;font-size:11px;font-family:Arial, Helvetica, sans-serif;font-weight:400;font-style:normal;dominant-baseline:text-before-edge;text-decoration:none solid rgb(0, 0, 0);">insert</text></g></g></g><g><g><g><text x="76.11328125" y="220.986328125" style="white-space:pre;stroke:none;fill:rgb(0,0,0);fill-opacity:1;font-size:11px;font-family:Arial, Helvetica, sans-serif;font-weight:400;font-style:normal;dominant-baseline:text-before-edge;text-decoration:none solid rgb(0, 0, 0);">cache</text></g></g></g><g transform="matrix(-1.8369701987210297e-16,-1,1,-1.8369701987210297e-16,-174.38476562499994,697.802734375)"><g><g><text x="228.4326171875" y="430.517578125" style="white-space:pre;stroke:none;fill:rgb(0,0,0);fill-opacity:1;font-size:9.9px;font-family:Arial, Helvetica, sans-serif;font-weight:400;font-style:normal;dominant-baseline:text-before-edge;text-decoration:none solid rgb(0, 0, 0);">identifying data</text></g></g></g><g><g><g><text x="272.294921875" y="30.6640625" style="white-space:pre;stroke:none;fill:rgb(0,0,0);fill-opacity:1;font-size:9.9px;font-family:Arial, Helvetica, sans-serif;font-weight:400;font-style:normal;dominant-baseline:text-before-edge;text-decoration:none solid rgb(0, 0, 0);">Object </text></g></g><g><g><text x="267.6171875" y="44.521484375" style="white-space:pre;stroke:none;fill:rgb(0,0,0);fill-opacity:1;font-size:9.9px;font-family:Arial, Helvetica, sans-serif;font-weight:400;font-style:normal;dominant-baseline:text-before-edge;text-decoration:none solid rgb(0, 0, 0);">database</text></g></g></g><g><g><g><text x="223.759765625" y="215.25390625" style="white-space:pre;stroke:none;fill:rgb(0,0,0);fill-opacity:1;font-size:9.9px;font-family:Arial, Helvetica, sans-serif;font-weight:400;font-style:italic;dominant-baseline:text-before-edge;text-decoration:none solid rgb(0, 0, 0);">Tree Sitter </text></g><g><text x="271.953125" y="213.37890625" style="white-space:pre;stroke:none;fill:rgb(0,0,0);fill-opacity:1;font-size:11px;font-family:Arial, Helvetica, sans-serif;font-weight:400;font-style:normal;dominant-baseline:text-before-edge;text-decoration:none solid rgb(0, 0, 0);">CST</text></g></g></g><g><g><g><text x="8.61328125" y="88.18359375" style="white-space:pre;stroke:none;fill:rgb(0,0,0);fill-opacity:1;font-size:11px;font-family:Arial, Helvetica, sans-serif;font-weight:400;font-style:normal;dominant-baseline:text-before-edge;text-decoration:none solid rgb(0, 0, 0);">1</text></g></g></g><g><g><g><text x="9.609375" y="247.119140625" style="white-space:pre;stroke:none;fill:rgb(0,0,0);fill-opacity:1;font-size:11px;font-family:Arial, Helvetica, sans-serif;font-weight:400;font-style:normal;dominant-baseline:text-before-edge;text-decoration:none solid rgb(0, 0, 0);">2</text></g></g></g><g><g><g><text x="174.27734375" y="276.337890625" style="white-space:pre;stroke:none;fill:rgb(0,0,0);fill-opacity:1;font-size:9.9px;font-family:Arial, Helvetica, sans-serif;font-weight:400;font-style:normal;dominant-baseline:text-before-edge;text-decoration:none solid rgb(0, 0, 0);">is </text></g></g><g><g><text x="159.98046875" y="286.1328125" style="white-space:pre;stroke:none;fill:rgb(0,0,0);fill-opacity:1;font-size:9.9px;font-family:Arial, Helvetica, sans-serif;font-weight:400;font-style:normal;dominant-baseline:text-before-edge;text-decoration:none solid rgb(0, 0, 0);">present?</text></g></g><g><g><text x="175.380859375" y="295.927734375" style="white-space:pre;stroke:none;fill:rgb(0,0,0);fill-opacity:1;font-size:9.9px;font-family:Arial, Helvetica, sans-serif;font-weight:400;font-style:normal;dominant-baseline:text-before-edge;text-decoration:none solid rgb(0, 0, 0);">in</text></g></g><g><g><text x="156.416015625" y="305.72265625" style="white-space:pre;stroke:none;fill:rgb(0,0,0);fill-opacity:1;font-size:9.9px;font-family:Arial, Helvetica, sans-serif;font-weight:400;font-style:normal;dominant-baseline:text-before-edge;text-decoration:none solid rgb(0, 0, 0);">HyperAST</text></g></g></g><g><g><g><text x="13.388671875" y="215.146484375" style="white-space:pre;stroke:none;fill:rgb(0,0,0);fill-opacity:1;font-size:9.9px;font-family:Arial, Helvetica, sans-serif;font-weight:400;font-style:italic;dominant-baseline:text-before-edge;text-decoration:none solid rgb(0, 0, 0);">Merkle DAG</text></g></g></g><g><g><g><text x="8.61328125" y="370.95703125" style="white-space:pre;stroke:none;fill:rgb(0,0,0);fill-opacity:1;font-size:11px;font-family:Arial, Helvetica, sans-serif;font-weight:400;font-style:normal;dominant-baseline:text-before-edge;text-decoration:none solid rgb(0, 0, 0);">3</text></g></g></g><g><g><g><text x="256.4453125" y="270.673828125" style="white-space:pre;stroke:none;fill:rgb(0,0,0);fill-opacity:1;font-size:11px;font-family:Arial, Helvetica, sans-serif;font-weight:400;font-style:normal;dominant-baseline:text-before-edge;text-decoration:none solid rgb(0, 0, 0);">Skip</text></g></g><g><g><text x="256.4453125" y="281.669921875" style="white-space:pre;stroke:none;fill:rgb(0,0,0);fill-opacity:1;font-size:11px;font-family:Arial, Helvetica, sans-serif;font-weight:400;font-style:normal;dominant-baseline:text-before-edge;text-decoration:none solid rgb(0, 0, 0);">metadata</text></g></g><g><g><text x="256.4453125" y="292.666015625" style="white-space:pre;stroke:none;fill:rgb(0,0,0);fill-opacity:1;font-size:11px;font-family:Arial, Helvetica, sans-serif;font-weight:400;font-style:normal;dominant-baseline:text-before-edge;text-decoration:none solid rgb(0, 0, 0);">computing</text></g></g><g><g><text x="256.4453125" y="305.537109375" style="white-space:pre;stroke:none;fill:rgb(0,0,0);fill-opacity:1;font-size:8.8px;font-family:Arial, Helvetica, sans-serif;font-weight:400;font-style:normal;dominant-baseline:text-before-edge;text-decoration:none solid rgb(0, 0, 0);">just retrieve</text></g></g><g><g><text x="256.4453125" y="316.533203125" style="white-space:pre;stroke:none;fill:rgb(0,0,0);fill-opacity:1;font-size:8.8px;font-family:Arial, Helvetica, sans-serif;font-weight:400;font-style:normal;dominant-baseline:text-before-edge;text-decoration:none solid rgb(0, 0, 0);">and proapagate</text></g></g><g><g><text x="256.4453125" y="327.529296875" style="white-space:pre;stroke:none;fill:rgb(0,0,0);fill-opacity:1;font-size:8.8px;font-family:Arial, Helvetica, sans-serif;font-weight:400;font-style:normal;dominant-baseline:text-before-edge;text-decoration:none solid rgb(0, 0, 0);">metadata</text></g></g></g><g><g><g><text x="28.447265625" y="313.8671875" style="white-space:pre;stroke:none;fill:rgb(0,0,0);fill-opacity:1;font-size:11px;font-family:Arial, Helvetica, sans-serif;font-weight:400;font-style:normal;dominant-baseline:text-before-edge;text-decoration:none solid rgb(0, 0, 0);">Skip whole subtree</text></g></g><g><g><text x="28.447265625" y="326.73828125" style="white-space:pre;stroke:none;fill:rgb(0,0,0);fill-opacity:1;font-size:8.8px;font-family:Arial, Helvetica, sans-serif;font-weight:400;font-style:normal;dominant-baseline:text-before-edge;text-decoration:none solid rgb(0, 0, 0);">also retrieve and</text></g></g><g><g><text x="28.447265625" y="337.734375" style="white-space:pre;stroke:none;fill:rgb(0,0,0);fill-opacity:1;font-size:8.8px;font-family:Arial, Helvetica, sans-serif;font-weight:400;font-style:normal;dominant-baseline:text-before-edge;text-decoration:none solid rgb(0, 0, 0);">propagate metadata</text></g></g></g><g><g><g><text x="154.443359375" y="212.87109375" style="white-space:pre;stroke:none;fill:rgb(0,0,0);fill-opacity:1;font-size:11px;font-family:Arial, Helvetica, sans-serif;font-weight:400;font-style:normal;dominant-baseline:text-before-edge;text-decoration:none solid rgb(0, 0, 0);">Extract </text></g></g><g><g><text x="154.443359375" y="223.8671875" style="white-space:pre;stroke:none;fill:rgb(0,0,0);fill-opacity:1;font-size:11px;font-family:Arial, Helvetica, sans-serif;font-weight:400;font-style:normal;dominant-baseline:text-before-edge;text-decoration:none solid rgb(0, 0, 0);">identifying </text></g></g><g><g><text x="154.443359375" y="234.86328125" style="white-space:pre;stroke:none;fill:rgb(0,0,0);fill-opacity:1;font-size:11px;font-family:Arial, Helvetica, sans-serif;font-weight:400;font-style:normal;dominant-baseline:text-before-edge;text-decoration:none solid rgb(0, 0, 0);">data</text></g></g></g><g><g><g><text x="35.625" y="285.205078125" style="white-space:pre;stroke:none;fill:rgb(144,19,254);fill-opacity:1;font-size:11px;font-family:Arial, Helvetica, sans-serif;font-weight:400;font-style:normal;dominant-baseline:text-before-edge;text-decoration:none solid rgb(144, 19, 254);">matched</text></g></g></g><g><g><g><text x="24.16015625" y="385.751953125" style="white-space:pre;stroke:none;fill:rgb(0,0,0);fill-opacity:1;font-size:11px;font-family:Arial, Helvetica, sans-serif;font-weight:400;font-style:normal;dominant-baseline:text-before-edge;text-decoration:none solid rgb(0, 0, 0);">Compute metadata</text></g></g></g><g><g><g><text x="31.630859375" y="243.701171875" style="white-space:pre;stroke:none;fill:rgb(144,19,254);fill-opacity:1;font-size:11px;font-family:Arial, Helvetica, sans-serif;font-weight:400;font-style:normal;dominant-baseline:text-before-edge;text-decoration:none solid rgb(144, 19, 254);">using</text></g></g><g><g><text x="31.630859375" y="254.697265625" style="white-space:pre;stroke:none;fill:rgb(144,19,254);fill-opacity:1;font-size:11px;font-family:Arial, Helvetica, sans-serif;font-weight:400;font-style:normal;dominant-baseline:text-before-edge;text-decoration:none solid rgb(144, 19, 254);">Oids</text></g></g></g><g><g><g><text x="43.1640625" y="402.373046875" style="white-space:pre;stroke:none;fill:rgb(0,0,0);fill-opacity:1;font-size:9.9px;font-family:Arial, Helvetica, sans-serif;font-weight:400;font-style:normal;dominant-baseline:text-before-edge;text-decoration:none solid rgb(0, 0, 0);">Hash families</text></g></g><g><g><text x="43.1640625" y="412.900390625" style="white-space:pre;stroke:none;fill:rgb(0,0,0);fill-opacity:1;font-size:8.91px;font-family:Arial, Helvetica, sans-serif;font-weight:400;font-style:normal;dominant-baseline:text-before-edge;text-decoration:none solid rgb(0, 0, 0);">struct ; label ;</text></g></g><g><g><text x="43.1640625" y="422.177734375" style="white-space:pre;stroke:none;fill:rgb(0,0,0);fill-opacity:1;font-size:9.9px;font-family:Arial, Helvetica, sans-serif;font-weight:400;font-style:normal;dominant-baseline:text-before-edge;text-decoration:none solid rgb(0, 0, 0);">syntax ; ...</text></g></g></g><g><g><g><text x="34.16015625" y="440.37109375" style="white-space:pre;stroke:none;fill:rgb(0,0,0);fill-opacity:1;font-size:9.9px;font-family:Arial, Helvetica, sans-serif;font-weight:400;font-style:normal;dominant-baseline:text-before-edge;text-decoration:none solid rgb(0, 0, 0);">References</text></g></g><g><g><text x="34.16015625" y="450.8984375" style="white-space:pre;stroke:none;fill:rgb(0,0,0);fill-opacity:1;font-size:8.91px;font-family:Arial, Helvetica, sans-serif;font-weight:400;font-style:normal;dominant-baseline:text-before-edge;text-decoration:none solid rgb(0, 0, 0);">extract declarations</text></g></g><g><g><text x="34.16015625" y="460.80078125" style="white-space:pre;stroke:none;fill:rgb(0,0,0);fill-opacity:1;font-size:8.91px;font-family:Arial, Helvetica, sans-serif;font-weight:400;font-style:normal;dominant-baseline:text-before-edge;text-decoration:none solid rgb(0, 0, 0);">resolve references</text></g></g></g><g><g><g><text x="147.16796875" y="387.75390625" style="white-space:pre;stroke:none;fill:rgb(0,0,0);fill-opacity:1;font-size:11px;font-family:Arial, Helvetica, sans-serif;font-weight:400;font-style:normal;dominant-baseline:text-before-edge;text-decoration:none solid rgb(0, 0, 0);">Possibly</text></g></g><g><g><text x="147.16796875" y="398.75" style="white-space:pre;stroke:none;fill:rgb(0,0,0);fill-opacity:1;font-size:11px;font-family:Arial, Helvetica, sans-serif;font-weight:400;font-style:normal;dominant-baseline:text-before-edge;text-decoration:none solid rgb(0, 0, 0);">Filter and </text></g></g><g><g><text x="147.16796875" y="409.74609375" style="white-space:pre;stroke:none;fill:rgb(0,0,0);fill-opacity:1;font-size:11px;font-family:Arial, Helvetica, sans-serif;font-weight:400;font-style:normal;dominant-baseline:text-before-edge;text-decoration:none solid rgb(0, 0, 0);">Compress</text></g></g><g><g><text x="147.16796875" y="420.7421875" style="white-space:pre;stroke:none;fill:rgb(0,0,0);fill-opacity:1;font-size:11px;font-family:Arial, Helvetica, sans-serif;font-weight:400;font-style:normal;dominant-baseline:text-before-edge;text-decoration:none solid rgb(0, 0, 0);">metadata</text></g></g><g><g><text x="147.16796875" y="431.73828125" style="white-space:pre;stroke:none;fill:rgb(0,0,0);fill-opacity:1;font-size:11px;font-family:Arial, Helvetica, sans-serif;font-weight:400;font-style:normal;dominant-baseline:text-before-edge;text-decoration:none solid rgb(0, 0, 0);">for better</text></g></g><g><g><text x="147.16796875" y="442.734375" style="white-space:pre;stroke:none;fill:rgb(0,0,0);fill-opacity:1;font-size:11px;font-family:Arial, Helvetica, sans-serif;font-weight:400;font-style:normal;dominant-baseline:text-before-edge;text-decoration:none solid rgb(0, 0, 0);">inlining</text></g></g><g><g><text x="147.16796875" y="453.73046875" style="white-space:pre;stroke:none;fill:rgb(0,0,0);fill-opacity:1;font-size:11px;font-family:Arial, Helvetica, sans-serif;font-weight:400;font-style:normal;dominant-baseline:text-before-edge;text-decoration:none solid rgb(0, 0, 0);">and reduced</text></g></g><g><g><text x="147.16796875" y="464.7265625" style="white-space:pre;stroke:none;fill:rgb(0,0,0);fill-opacity:1;font-size:11px;font-family:Arial, Helvetica, sans-serif;font-weight:400;font-style:normal;dominant-baseline:text-before-edge;text-decoration:none solid rgb(0, 0, 0);">cache misses</text></g></g></g></svg>
</svg>
